<?xml version="1.0" standalone="no"?><!-- Generator: Gravit.io --><svg xmlns="http://www.w3.org/2000/svg" xmlns:xlink="http://www.w3.org/1999/xlink" style="isolation:isolate" viewBox="0 0 56.073 55.976" width="56.073" height="55.976"><defs><clipPath id="_clipPath_J22LOyoHC8fRnVBWNAT1tJ9P8DratC1S"><rect width="56.073" height="55.976"/></clipPath></defs><g clip-path="url(#_clipPath_J22LOyoHC8fRnVBWNAT1tJ9P8DratC1S)"><g id="Layer_1-2"><path d=" M 11.621 0 C 12.278 0.008 12.903 0.286 13.349 0.768 L 18.245 5.76 C 21.229 4.408 24.472 3.72 27.748 3.744 C 31.086 3.733 34.389 4.42 37.446 5.76 L 42.534 0.836 C 43.021 0.346 43.67 0.05 44.359 0.001 C 45.002 0.034 45.598 0.346 45.991 0.856 L 55.305 10.074 C 55.791 10.469 56.073 11.062 56.073 11.689 C 56.073 12.316 55.791 12.909 55.305 13.305 L 50.023 18.532 C 52.582 24.543 52.582 31.339 50.023 37.35 L 55.205 42.533 C 55.714 42.969 56.025 43.592 56.069 44.261 C 56.011 44.948 55.662 45.578 55.109 45.99 L 45.892 55.207 C 45.461 55.683 44.853 55.961 44.211 55.976 C 43.595 55.972 43.012 55.69 42.628 55.207 L 37.346 49.925 C 34.393 51.208 31.205 51.862 27.985 51.846 C 24.744 51.857 21.532 51.238 18.528 50.022 L 13.346 55.292 C 12.374 56.2 10.865 56.203 9.89 55.299 L 0.865 46.031 C 0.333 45.613 0.03 44.969 0.048 44.293 C 0.088 43.631 0.38 43.009 0.865 42.556 L 5.953 37.44 C 4.594 34.491 3.906 31.277 3.937 28.03 C 3.917 24.742 4.537 21.481 5.762 18.429 L 0.673 13.247 C 0.227 12.804 -0.017 12.195 0.001 11.566 C -0.019 10.955 0.186 10.357 0.577 9.886 L 9.891 0.764 C 10.338 0.283 10.964 0.006 11.621 0 Z  M 20.861 20.713 C 18.951 22.594 17.891 25.173 17.925 27.854 C 17.88 30.508 18.92 33.066 20.804 34.936 C 22.632 36.855 25.18 37.921 27.829 37.874 C 30.51 37.907 33.089 36.846 34.97 34.936 C 36.913 33.097 37.998 30.529 37.96 27.854 C 37.912 22.3 33.439 17.801 27.886 17.719 C 25.229 17.691 22.681 18.776 20.861 20.713 Z " fill="rgba(93, 153, 198, 0.2)"/></g></g></svg>
