<svg xmlns="http://www.w3.org/2000/svg" viewBox="0 0 199.947 90.001">
  <title>Asset 8</title>
  <g id="Layer_2" data-name="Layer 2">
    <g id="Layer_1-2" data-name="Layer 1">
      <g>
        <path d="M65.917,68.919a.227.227,0,0,1-.052-.163V65.09a.241.241,0,0,1,.052-.169.23.23,0,0,1,.172-.054h1.745a1.345,1.345,0,0,1,.951.3,1.062,1.062,0,0,1,.323.815.955.955,0,0,1-.145.52.854.854,0,0,1-.4.338.9.9,0,0,1,.67.942,1.2,1.2,0,0,1-.154.607,1.085,1.085,0,0,1-.462.426,1.67,1.67,0,0,1-.761.157H66.089A.23.23,0,0,1,65.917,68.919Zm1.809-2.337a.637.637,0,0,0,.456-.151.552.552,0,0,0,.16-.422.542.542,0,0,0-.148-.426.711.711,0,0,0-.474-.129H66.639v1.129Zm.09,1.806a.574.574,0,0,0,.646-.616.583.583,0,0,0-.19-.474.8.8,0,0,0-.528-.161H66.639v1.25Z" fill="#282828"/>
        <path d="M69.873,68.919a.227.227,0,0,1-.052-.163V65.09a.241.241,0,0,1,.052-.169.23.23,0,0,1,.172-.054h.32a.242.242,0,0,1,.175.054.234.234,0,0,1,.054.169v3.3h1.848a.227.227,0,0,1,.169.052.237.237,0,0,1,.048.165v.163a.216.216,0,0,1-.048.157.231.231,0,0,1-.169.049h-2.4A.23.23,0,0,1,69.873,68.919Z" fill="#282828"/>
        <path d="M73.273,68.5a2.608,2.608,0,0,1,0-3.165,2.361,2.361,0,0,1,3.059,0,2.6,2.6,0,0,1,0,3.165,2.364,2.364,0,0,1-3.059,0Zm2.5-.408a2.237,2.237,0,0,0,0-2.346,1.373,1.373,0,0,0-1.935,0,2.22,2.22,0,0,0,0,2.346,1.366,1.366,0,0,0,1.935,0Z" fill="#282828"/>
        <path d="M77.752,68.508a2.136,2.136,0,0,1-.562-1.588,2.158,2.158,0,0,1,.553-1.589,2.132,2.132,0,0,1,1.579-.556,3.235,3.235,0,0,1,.761.085,1.887,1.887,0,0,1,.592.242.1.1,0,0,1,.054.078.167.167,0,0,1-.03.085l-.169.29c-.024.036-.047.054-.067.054a.23.23,0,0,1-.085-.03,1.86,1.86,0,0,0-.972-.23,1.431,1.431,0,0,0-1.069.393,1.614,1.614,0,0,0-.387,1.177,1.591,1.591,0,0,0,.4,1.186,1.473,1.473,0,0,0,1.075.39,2.037,2.037,0,0,0,1.033-.235.237.237,0,0,1,.078-.03c.024,0,.048.018.072.054l.187.314a.143.143,0,0,1,.018.06c0,.024-.022.051-.067.079a2.465,2.465,0,0,1-1.407.326A2.159,2.159,0,0,1,77.752,68.508Z" fill="#282828"/>
        <path d="M81.451,68.919a.227.227,0,0,1-.052-.163V65.09a.241.241,0,0,1,.052-.169.23.23,0,0,1,.172-.054h.32a.242.242,0,0,1,.175.054.234.234,0,0,1,.054.169v3.667a.229.229,0,0,1-.051.163.241.241,0,0,1-.178.054h-.32A.23.23,0,0,1,81.451,68.919Zm2.434.043a.184.184,0,0,1-.069-.054L82.36,67.155a.681.681,0,0,1-.078-.115.286.286,0,0,1-.024-.127.28.28,0,0,1,.021-.122.906.906,0,0,1,.082-.121l1.419-1.733a.16.16,0,0,1,.072-.06.408.408,0,0,1,.115-.012h.556a.091.091,0,0,1,.066.023.084.084,0,0,1,.024.06.114.114,0,0,1-.036.085l-1.564,1.879,1.6,1.89a.116.116,0,0,1,.036.085.081.081,0,0,1-.024.06.089.089,0,0,1-.067.024h-.574A.321.321,0,0,1,83.885,68.962Z" fill="#282828"/>
        <path d="M85.337,68.508a2.136,2.136,0,0,1-.562-1.588,2.158,2.158,0,0,1,.553-1.589,2.132,2.132,0,0,1,1.579-.556,3.235,3.235,0,0,1,.761.085,1.887,1.887,0,0,1,.592.242.1.1,0,0,1,.054.078.167.167,0,0,1-.03.085l-.169.29c-.024.036-.047.054-.067.054a.23.23,0,0,1-.085-.03,1.86,1.86,0,0,0-.972-.23,1.431,1.431,0,0,0-1.069.393,1.614,1.614,0,0,0-.387,1.177,1.591,1.591,0,0,0,.4,1.186,1.473,1.473,0,0,0,1.075.39,2.037,2.037,0,0,0,1.033-.235.237.237,0,0,1,.078-.03c.024,0,.048.018.072.054l.187.314a.143.143,0,0,1,.018.06c0,.024-.022.051-.067.079a2.465,2.465,0,0,1-1.407.326A2.159,2.159,0,0,1,85.337,68.508Z" fill="#282828"/>
        <path d="M89.036,68.919a.227.227,0,0,1-.052-.163V65.09a.241.241,0,0,1,.052-.169.23.23,0,0,1,.172-.054h.32a.242.242,0,0,1,.175.054.234.234,0,0,1,.054.169v1.522h1.981V65.09a.234.234,0,0,1,.054-.169.242.242,0,0,1,.175-.054h.314a.242.242,0,0,1,.175.054.234.234,0,0,1,.054.169v3.667a.229.229,0,0,1-.052.163.239.239,0,0,1-.178.054h-.314a.242.242,0,0,1-.175-.054.221.221,0,0,1-.054-.163V67.2H89.758v1.559a.229.229,0,0,1-.051.163.241.241,0,0,1-.178.054h-.32A.23.23,0,0,1,89.036,68.919Z" fill="#282828"/>
        <path d="M93.1,68.883a.208.208,0,0,1,.018-.079l1.594-3.78A.293.293,0,0,1,94.8,64.9a.19.19,0,0,1,.121-.033h.332a.188.188,0,0,1,.124.033.308.308,0,0,1,.075.124l1.594,3.78a.2.2,0,0,1,.018.079c0,.06-.035.09-.1.09h-.525a.212.212,0,0,1-.112-.021.191.191,0,0,1-.063-.088l-.344-.846H94.245l-.338.846a.2.2,0,0,1-.063.088.214.214,0,0,1-.112.021h-.525C93.138,68.973,93.1,68.943,93.1,68.883Zm2.615-1.426-.64-1.582-.64,1.582Z" fill="#282828"/>
        <path d="M97.7,68.919a.227.227,0,0,1-.052-.163V65.09a.241.241,0,0,1,.052-.169.23.23,0,0,1,.172-.054h.32a.242.242,0,0,1,.175.054.234.234,0,0,1,.054.169v3.667a.229.229,0,0,1-.051.163.241.241,0,0,1-.178.054h-.32A.23.23,0,0,1,97.7,68.919Z" fill="#282828"/>
        <path d="M99.189,68.919a.227.227,0,0,1-.052-.163V65.09a.192.192,0,0,1,.23-.223h.278a.31.31,0,0,1,.133.023.281.281,0,0,1,.1.1l1.993,2.766V65.09a.241.241,0,0,1,.052-.169.229.229,0,0,1,.172-.054h.32a.24.24,0,0,1,.175.054.232.232,0,0,1,.054.169v3.667a.227.227,0,0,1-.052.163.239.239,0,0,1-.178.054h-.284a.287.287,0,0,1-.127-.021.3.3,0,0,1-.1-.093L99.91,66.1v2.658a.229.229,0,0,1-.051.163.241.241,0,0,1-.178.054h-.32A.23.23,0,0,1,99.189,68.919Z" fill="#282828"/>
        <path d="M105.906,68.919a.227.227,0,0,1-.052-.163V65.09a.241.241,0,0,1,.052-.169.23.23,0,0,1,.172-.054h1.746a1.344,1.344,0,0,1,.951.3,1.063,1.063,0,0,1,.323.815.959.959,0,0,1-.145.52.853.853,0,0,1-.4.338.894.894,0,0,1,.67.942,1.2,1.2,0,0,1-.154.607,1.088,1.088,0,0,1-.462.426,1.672,1.672,0,0,1-.761.157h-1.763A.23.23,0,0,1,105.906,68.919Zm1.809-2.337a.635.635,0,0,0,.455-.151.551.551,0,0,0,.161-.422.542.542,0,0,0-.148-.426.711.711,0,0,0-.474-.129h-1.082v1.129Zm.09,1.806a.573.573,0,0,0,.646-.616.582.582,0,0,0-.191-.474.794.794,0,0,0-.528-.161h-1.1v1.25Z" fill="#282828"/>
        <path d="M110.073,68.5a2.61,2.61,0,0,1,0-3.165,2.361,2.361,0,0,1,3.059,0,2.6,2.6,0,0,1,0,3.165,2.365,2.365,0,0,1-3.059,0Zm2.5-.408a2.239,2.239,0,0,0,0-2.346,1.373,1.373,0,0,0-1.935,0,2.217,2.217,0,0,0,0,2.346,1.366,1.366,0,0,0,1.935,0Z" fill="#282828"/>
        <path d="M113.749,68.883a.193.193,0,0,1,.018-.079l1.594-3.78a.293.293,0,0,1,.079-.124.19.19,0,0,1,.121-.033h.332a.191.191,0,0,1,.125.033.326.326,0,0,1,.075.124l1.595,3.78a.207.207,0,0,1,.018.079q0,.09-.1.09h-.525a.214.214,0,0,1-.112-.021.2.2,0,0,1-.063-.088l-.344-.846H114.89l-.338.846a.2.2,0,0,1-.064.088.209.209,0,0,1-.111.021h-.525C113.783,68.973,113.749,68.943,113.749,68.883Zm2.615-1.426-.639-1.582-.64,1.582Z" fill="#282828"/>
        <path d="M118.347,68.919a.229.229,0,0,1-.052-.163V65.09a.243.243,0,0,1,.052-.169.23.23,0,0,1,.172-.054H120.1a1.548,1.548,0,0,1,1.066.326,1.228,1.228,0,0,1,.366.966,1.273,1.273,0,0,1-.2.721,1.213,1.213,0,0,1-.58.451l.67,1.486a.152.152,0,0,1,.018.066c0,.06-.037.09-.109.09h-.5a.231.231,0,0,1-.115-.021.178.178,0,0,1-.066-.088l-.61-1.431h-.972v1.323a.229.229,0,0,1-.052.163.239.239,0,0,1-.178.054h-.32A.23.23,0,0,1,118.347,68.919Zm1.591-2.065a.975.975,0,0,0,.623-.163.65.65,0,0,0,.2-.531.7.7,0,0,0-.181-.531.78.78,0,0,0-.55-.169h-.959v1.4Z" fill="#282828"/>
        <path d="M122.171,68.919a.229.229,0,0,1-.052-.163V65.09a.243.243,0,0,1,.052-.169.23.23,0,0,1,.172-.054h1.208a2.254,2.254,0,0,1,1.562.488,2.016,2.016,0,0,1,.54,1.565,1.837,1.837,0,0,1-2.1,2.053h-1.208A.23.23,0,0,1,122.171,68.919Zm1.429-.531a1.29,1.29,0,0,0,.963-.332,2.152,2.152,0,0,0,0-2.268,1.3,1.3,0,0,0-.963-.329h-.706v2.929Z" fill="#282828"/>
        <path d="M128.47,68.5a2.61,2.61,0,0,1,0-3.165,2.361,2.361,0,0,1,3.059,0,2.6,2.6,0,0,1,0,3.165,2.365,2.365,0,0,1-3.059,0Zm2.5-.408a2.239,2.239,0,0,0,0-2.346,1.373,1.373,0,0,0-1.935,0,2.217,2.217,0,0,0,0,2.346,1.366,1.366,0,0,0,1.935,0Z" fill="#282828"/>
        <path d="M132.709,68.919a.229.229,0,0,1-.052-.163V65.09a.243.243,0,0,1,.052-.169.23.23,0,0,1,.172-.054h2.513a.224.224,0,0,1,.165.048.236.236,0,0,1,.046.163v.163a.248.248,0,0,1-.046.166.215.215,0,0,1-.165.052h-1.963v1.166h1.425a.236.236,0,0,1,.169.048.226.226,0,0,1,.049.163V67a.238.238,0,0,1-.049.166.227.227,0,0,1-.169.052h-1.425v1.54a.229.229,0,0,1-.052.163.239.239,0,0,1-.178.054h-.32A.23.23,0,0,1,132.709,68.919Z" fill="#282828"/>
        <path d="M138.285,68.919a.229.229,0,0,1-.052-.163V65.09a.243.243,0,0,1,.052-.169.23.23,0,0,1,.172-.054h1.208a2.254,2.254,0,0,1,1.562.488,2.016,2.016,0,0,1,.54,1.565,1.837,1.837,0,0,1-2.1,2.053h-1.208A.23.23,0,0,1,138.285,68.919Zm1.429-.531a1.29,1.29,0,0,0,.963-.332,2.152,2.152,0,0,0,0-2.268,1.3,1.3,0,0,0-.963-.329h-.706v2.929Z" fill="#282828"/>
        <path d="M142.41,68.919a.229.229,0,0,1-.052-.163V65.09a.243.243,0,0,1,.052-.169.23.23,0,0,1,.172-.054H145.1a.224.224,0,0,1,.165.048.236.236,0,0,1,.046.163v.163a.248.248,0,0,1-.046.166.215.215,0,0,1-.165.052h-1.963V66.63h1.425a.232.232,0,0,1,.169.049.225.225,0,0,1,.049.163v.151a.238.238,0,0,1-.049.166.227.227,0,0,1-.169.052h-1.425v1.177h1.957a.226.226,0,0,1,.168.052.237.237,0,0,1,.049.165v.163a.216.216,0,0,1-.049.157.231.231,0,0,1-.168.049h-2.507A.23.23,0,0,1,142.41,68.919Z" fill="#282828"/>
        <path d="M145.889,68.919a.229.229,0,0,1-.052-.163V65.09a.243.243,0,0,1,.052-.169.23.23,0,0,1,.172-.054h1.576a1.548,1.548,0,0,1,1.066.326,1.228,1.228,0,0,1,.366.966,1.273,1.273,0,0,1-.2.721,1.213,1.213,0,0,1-.58.451l.67,1.486a.152.152,0,0,1,.018.066c0,.06-.037.09-.109.09h-.5a.231.231,0,0,1-.115-.021.178.178,0,0,1-.066-.088l-.61-1.431h-.972v1.323a.229.229,0,0,1-.052.163.239.239,0,0,1-.178.054h-.32A.23.23,0,0,1,145.889,68.919Zm1.591-2.065a.975.975,0,0,0,.623-.163.65.65,0,0,0,.2-.531.7.7,0,0,0-.181-.531.78.78,0,0,0-.55-.169h-.959v1.4Z" fill="#282828"/>
        <path d="M149.711,68.919a.229.229,0,0,1-.052-.163V65.09a.243.243,0,0,1,.052-.169.23.23,0,0,1,.172-.054h.32a.242.242,0,0,1,.175.054.234.234,0,0,1,.054.169v3.667a.229.229,0,0,1-.052.163.239.239,0,0,1-.178.054h-.32A.23.23,0,0,1,149.711,68.919Z" fill="#282828"/>
        <path d="M152.689,68.943a.292.292,0,0,1-.076-.121l-1.57-3.787a.15.15,0,0,1-.018-.072.091.091,0,0,1,.027-.069.1.1,0,0,1,.076-.027h.519a.2.2,0,0,1,.121.03.194.194,0,0,1,.067.1l1.141,2.9,1.141-2.9a.187.187,0,0,1,.066-.1.2.2,0,0,1,.121-.03h.52a.1.1,0,0,1,.076.027.094.094,0,0,1,.026.069.16.16,0,0,1-.018.072l-1.565,3.787a.265.265,0,0,1-.078.121.218.218,0,0,1-.127.03h-.326A.2.2,0,0,1,152.689,68.943Z" fill="#282828"/>
        <path d="M154.462,68.883a.193.193,0,0,1,.018-.079l1.594-3.78a.293.293,0,0,1,.079-.124.19.19,0,0,1,.121-.033h.332a.191.191,0,0,1,.125.033.326.326,0,0,1,.075.124L158.4,68.8a.207.207,0,0,1,.018.079q0,.09-.1.09h-.525a.214.214,0,0,1-.112-.021.2.2,0,0,1-.063-.088l-.344-.846H155.6l-.338.846a.2.2,0,0,1-.064.088.209.209,0,0,1-.111.021h-.525C154.5,68.973,154.462,68.943,154.462,68.883Zm2.615-1.426-.639-1.582-.64,1.582Z" fill="#282828"/>
        <path d="M159.335,68.919a.221.221,0,0,1-.054-.163v-3.3h-1.057a.226.226,0,0,1-.166-.049.235.235,0,0,1-.045-.163v-.163a.25.25,0,0,1,.045-.166.218.218,0,0,1,.166-.051h2.887a.229.229,0,0,1,.169.051.239.239,0,0,1,.048.166v.163a.225.225,0,0,1-.048.163.238.238,0,0,1-.169.049h-1.057v3.3a.229.229,0,0,1-.052.163.239.239,0,0,1-.178.054h-.314A.24.24,0,0,1,159.335,68.919Z" fill="#282828"/>
        <path d="M161.851,68.919a.229.229,0,0,1-.052-.163V65.09a.243.243,0,0,1,.052-.169.23.23,0,0,1,.172-.054h.32a.242.242,0,0,1,.175.054.234.234,0,0,1,.054.169v3.667a.229.229,0,0,1-.052.163.239.239,0,0,1-.178.054h-.32A.23.23,0,0,1,161.851,68.919Z" fill="#282828"/>
        <path d="M164.829,68.943a.292.292,0,0,1-.076-.121l-1.57-3.787a.15.15,0,0,1-.018-.072.091.091,0,0,1,.027-.069.1.1,0,0,1,.076-.027h.519a.2.2,0,0,1,.121.03.194.194,0,0,1,.067.1l1.141,2.9,1.141-2.9a.187.187,0,0,1,.066-.1.2.2,0,0,1,.121-.03h.52a.1.1,0,0,1,.076.027.094.094,0,0,1,.026.069.16.16,0,0,1-.018.072l-1.565,3.787a.265.265,0,0,1-.078.121.218.218,0,0,1-.127.03h-.326A.2.2,0,0,1,164.829,68.943Z" fill="#282828"/>
        <path d="M167.618,68.919a.229.229,0,0,1-.052-.163V65.09a.243.243,0,0,1,.052-.169.23.23,0,0,1,.172-.054H170.3a.224.224,0,0,1,.165.048.236.236,0,0,1,.046.163v.163a.248.248,0,0,1-.046.166.215.215,0,0,1-.165.052h-1.963V66.63h1.425a.232.232,0,0,1,.169.049.225.225,0,0,1,.049.163v.151a.238.238,0,0,1-.049.166.227.227,0,0,1-.169.052h-1.425v1.177H170.3a.226.226,0,0,1,.168.052.237.237,0,0,1,.049.165v.163a.216.216,0,0,1-.049.157.231.231,0,0,1-.168.049h-2.507A.23.23,0,0,1,167.618,68.919Z" fill="#282828"/>
        <path d="M171.671,68.97a1.922,1.922,0,0,1-.662-.263q-.079-.054-.079-.1a.118.118,0,0,1,.024-.073l.2-.314c.024-.036.046-.054.066-.054a.158.158,0,0,1,.079.03,2.11,2.11,0,0,0,.52.214,2.228,2.228,0,0,0,.6.082,1.144,1.144,0,0,0,.619-.136.483.483,0,0,0,.208-.438.492.492,0,0,0-.078-.29.653.653,0,0,0-.23-.187c-.1-.053-.264-.123-.489-.211l-.139-.054a5.444,5.444,0,0,1-.649-.3,1.289,1.289,0,0,1-.425-.38.956.956,0,0,1-.169-.573.981.981,0,0,1,.419-.849,1.859,1.859,0,0,1,1.1-.3,2.915,2.915,0,0,1,.722.079,1.568,1.568,0,0,1,.528.241c.048.037.072.071.072.1a.1.1,0,0,1-.024.066l-.193.314c-.024.036-.045.054-.06.054a.182.182,0,0,1-.079-.036,1.744,1.744,0,0,0-.96-.248.984.984,0,0,0-.574.139.506.506,0,0,0-.193.441.494.494,0,0,0,.082.3.632.632,0,0,0,.238.191c.1.052.273.123.507.211l.151.06a5.038,5.038,0,0,1,.689.323,1.108,1.108,0,0,1,.383.369,1.061,1.061,0,0,1,.136.564.976.976,0,0,1-.39.818,1.787,1.787,0,0,1-1.108.3A3.808,3.808,0,0,1,171.671,68.97Z" fill="#282828"/>
      </g>
      <g>
        <path d="M31.185,28.358a1.423,1.423,0,0,1,1.028.457l2.912,2.968a13.445,13.445,0,0,1,5.652-1.2,14.234,14.234,0,0,1,5.766,1.2l3.026-2.928a1.7,1.7,0,0,1,1.085-.5,1.311,1.311,0,0,1,.97.509l5.538,5.481a1.239,1.239,0,0,1,0,1.921l-3.14,3.108a14.28,14.28,0,0,1,0,11.19L57.1,53.65a1.48,1.48,0,0,1,.514,1.028,1.432,1.432,0,0,1-.571,1.028l-5.481,5.481a1.392,1.392,0,0,1-1,.457,1.213,1.213,0,0,1-.942-.457l-3.14-3.14a13.8,13.8,0,0,1-5.566,1.142A14.852,14.852,0,0,1,35.3,58.1l-3.083,3.134a1.509,1.509,0,0,1-2.055,0l-5.367-5.509a1.27,1.27,0,0,1-.485-1.033,1.539,1.539,0,0,1,.485-1.033l3.026-3.042a13.066,13.066,0,0,1-1.2-5.595A15.084,15.084,0,0,1,27.7,39.32l-3.026-3.083a1.353,1.353,0,0,1-.4-1,1.482,1.482,0,0,1,.343-1l5.538-5.424A1.42,1.42,0,0,1,31.185,28.358Zm5.494,12.316a5.854,5.854,0,0,0-1.746,4.246,5.8,5.8,0,0,0,1.712,4.211,5.627,5.627,0,0,0,4.177,1.747,5.856,5.856,0,0,0,4.246-1.747,5.686,5.686,0,0,0,1.78-4.211,6.08,6.08,0,0,0-5.992-6.026A5.648,5.648,0,0,0,36.679,40.675Z" fill="#144e98"/>
        <g>
          <path d="M66.194,59.64a1.96,1.96,0,0,1-.585-1.442V31.8a1.944,1.944,0,0,1,.585-1.462,2,2,0,0,1,1.442-.565h9.318a10.085,10.085,0,0,1,4.64,1.033,7.866,7.866,0,0,1,3.177,2.885,7.784,7.784,0,0,1,1.15,4.191,5.963,5.963,0,0,1-1.033,3.431,7.573,7.573,0,0,1-2.826,2.457,6.972,6.972,0,0,1,5.692,7.251,9.044,9.044,0,0,1-1.268,4.757,8.645,8.645,0,0,1-3.548,3.274,11.15,11.15,0,0,1-5.166,1.17H67.637A1.961,1.961,0,0,1,66.194,59.64Zm10.761-17.35a5.646,5.646,0,0,0,3.685-1.13,3.987,3.987,0,0,0,1.384-3.275A3.929,3.929,0,0,0,80.64,34.63a5.712,5.712,0,0,0-3.685-1.111H69.664v8.771Zm.818,14.191a6.576,6.576,0,0,0,4.406-1.423,5,5,0,0,0,1.676-4.035,4.41,4.41,0,0,0-1.656-3.7,7.024,7.024,0,0,0-4.426-1.287H69.664V56.482Z" fill="#282828"/>
          <path d="M92.354,59.64a1.96,1.96,0,0,1-.585-1.442V31.8a1.944,1.944,0,0,1,.585-1.462,2,2,0,0,1,1.442-.565h9.318a10.083,10.083,0,0,1,4.639,1.033,7.866,7.866,0,0,1,3.177,2.885,7.784,7.784,0,0,1,1.15,4.191,5.963,5.963,0,0,1-1.033,3.431,7.573,7.573,0,0,1-2.826,2.457,6.972,6.972,0,0,1,5.692,7.251,9.044,9.044,0,0,1-1.268,4.757,8.645,8.645,0,0,1-3.548,3.274,11.148,11.148,0,0,1-5.166,1.17H93.8A1.961,1.961,0,0,1,92.354,59.64Zm10.761-17.35a5.643,5.643,0,0,0,3.684-1.13,3.987,3.987,0,0,0,1.384-3.275A3.929,3.929,0,0,0,106.8,34.63a5.709,5.709,0,0,0-3.684-1.111H95.824v8.771Zm.818,14.191a6.574,6.574,0,0,0,4.406-1.423,5,5,0,0,0,1.676-4.035,4.41,4.41,0,0,0-1.656-3.7,7.022,7.022,0,0,0-4.425-1.287H95.824V56.482Z" fill="#282828"/>
          <path d="M123.8,58.627a13.908,13.908,0,0,1-5.478-5.556,16.587,16.587,0,0,1-1.949-8.09,16.479,16.479,0,0,1,1.949-8.07,13.946,13.946,0,0,1,5.478-5.536,17.216,17.216,0,0,1,16.063,0,14.083,14.083,0,0,1,5.5,5.536,16.362,16.362,0,0,1,1.969,8.07,16.469,16.469,0,0,1-1.969,8.09,14.078,14.078,0,0,1-5.478,5.556,17.256,17.256,0,0,1-16.083,0Zm14.017-3.255a11.082,11.082,0,0,0,4.133-4.309,13.226,13.226,0,0,0,0-12.164,10.976,10.976,0,0,0-4.113-4.288,12.263,12.263,0,0,0-11.97,0,10.976,10.976,0,0,0-4.113,4.288,13.226,13.226,0,0,0,0,12.164,11.075,11.075,0,0,0,4.133,4.309,12.064,12.064,0,0,0,11.931,0Z" fill="#282828"/>
          <path d="M152.081,59.64A1.96,1.96,0,0,1,151.5,58.2V31.8a1.944,1.944,0,0,1,.585-1.462,2,2,0,0,1,1.442-.565h7.057a15.593,15.593,0,0,1,7.837,1.949,13.772,13.772,0,0,1,5.341,5.4,15.945,15.945,0,0,1,1.911,7.855,16.059,16.059,0,0,1-1.911,7.876,13.73,13.73,0,0,1-5.341,5.419,15.582,15.582,0,0,1-7.837,1.949h-7.057A1.961,1.961,0,0,1,152.081,59.64Zm8.5-3a11.322,11.322,0,0,0,5.79-1.481A10.286,10.286,0,0,0,170.347,51a13.42,13.42,0,0,0,0-12.027,10.328,10.328,0,0,0-3.977-4.133,11.331,11.331,0,0,0-5.79-1.481h-5.029V56.638Z" fill="#282828"/>
        </g>
      </g>
      <rect width="199.947" height="90.001" fill="none"/>
    </g>
  </g>
</svg>
