<?xml version="1.0" standalone="no"?><!-- Generator: Gravit.io --><svg xmlns="http://www.w3.org/2000/svg" xmlns:xlink="http://www.w3.org/1999/xlink" style="isolation:isolate" viewBox="0 0 199 90" width="199" height="90"><defs><clipPath id="_clipPath_CMpJb6im75ExrL8CiQpIlzaykk6Po6cx"><rect width="199" height="90"/></clipPath></defs><g clip-path="url(#_clipPath_CMpJb6im75ExrL8CiQpIlzaykk6Po6cx)"><g id="Layer_1-2"><g id="Group"><path d=" M 65.683 69.109 C 65.645 69.064 65.626 69.006 65.631 68.947 L 65.631 65.298 C 65.626 65.238 65.645 65.177 65.683 65.13 C 65.73 65.09 65.792 65.07 65.854 65.076 L 67.59 65.076 C 67.933 65.051 68.271 65.158 68.537 65.375 C 68.756 65.586 68.873 65.882 68.858 66.186 C 68.861 66.369 68.811 66.548 68.714 66.703 C 68.62 66.855 68.481 66.972 68.316 67.04 C 68.736 67.149 69.017 67.545 68.983 67.977 C 68.986 68.189 68.933 68.397 68.83 68.582 C 68.721 68.765 68.561 68.913 68.37 69.006 C 68.133 69.116 67.874 69.17 67.612 69.162 L 65.854 69.162 C 65.792 69.168 65.73 69.149 65.683 69.109 Z  M 67.483 66.783 C 67.648 66.794 67.811 66.74 67.937 66.633 C 68.047 66.522 68.105 66.369 68.096 66.213 C 68.111 66.057 68.057 65.902 67.949 65.789 C 67.812 65.691 67.644 65.646 67.477 65.66 L 66.401 65.66 L 66.401 66.784 L 67.483 66.783 Z  M 67.573 68.581 C 67.744 68.603 67.915 68.546 68.04 68.427 C 68.165 68.308 68.23 68.139 68.215 67.967 C 68.228 67.79 68.159 67.616 68.026 67.496 C 67.876 67.382 67.689 67.325 67.501 67.335 L 66.401 67.335 L 66.401 68.58 L 67.573 68.581 Z " fill="rgb(255,255,255)"/><path d=" M 69.62 69.109 C 69.582 69.064 69.563 69.006 69.568 68.947 L 69.568 65.298 C 69.563 65.238 69.582 65.177 69.62 65.13 C 69.667 65.09 69.729 65.07 69.791 65.076 L 70.109 65.076 C 70.172 65.071 70.235 65.09 70.284 65.13 C 70.323 65.177 70.342 65.237 70.337 65.298 L 70.337 68.583 L 72.177 68.583 C 72.237 68.576 72.298 68.595 72.345 68.634 C 72.381 68.681 72.398 68.74 72.393 68.799 L 72.393 68.961 C 72.398 69.017 72.381 69.073 72.345 69.117 C 72.297 69.155 72.237 69.172 72.177 69.166 L 69.788 69.166 C 69.727 69.17 69.666 69.15 69.62 69.109 Z " fill="rgb(255,255,255)"/><path d=" M 72.926 68.601 C 72.216 67.671 72.216 66.381 72.926 65.451 C 73.804 64.705 75.093 64.705 75.97 65.451 C 76.683 66.38 76.683 67.672 75.97 68.601 C 75.092 69.346 73.804 69.346 72.926 68.601 Z  M 75.414 68.195 C 75.855 67.479 75.855 66.576 75.414 65.86 C 74.881 65.331 74.021 65.331 73.488 65.86 C 73.043 66.575 73.043 67.48 73.488 68.195 C 73.743 68.451 74.09 68.595 74.451 68.595 C 74.813 68.595 75.159 68.451 75.414 68.195 Z " fill="rgb(255,255,255)"/><path d=" M 77.384 68.609 C 76.989 68.181 76.786 67.61 76.824 67.028 C 76.786 66.448 76.985 65.878 77.375 65.447 C 77.801 65.056 78.369 64.856 78.946 64.893 C 79.201 64.892 79.455 64.92 79.704 64.978 C 79.912 65.024 80.112 65.106 80.293 65.219 C 80.323 65.234 80.343 65.263 80.347 65.297 C 80.345 65.327 80.334 65.356 80.317 65.381 L 80.149 65.67 C 80.125 65.706 80.102 65.724 80.082 65.724 C 80.052 65.719 80.023 65.709 79.997 65.694 C 79.702 65.531 79.367 65.451 79.03 65.465 C 78.636 65.442 78.251 65.584 77.966 65.856 C 77.687 66.18 77.548 66.601 77.581 67.027 C 77.547 67.459 77.691 67.885 77.979 68.208 C 78.269 68.476 78.654 68.616 79.049 68.596 C 79.406 68.61 79.761 68.529 80.077 68.362 C 80.101 68.347 80.127 68.337 80.155 68.332 C 80.178 68.332 80.202 68.35 80.226 68.386 L 80.412 68.698 C 80.423 68.717 80.429 68.737 80.43 68.758 C 80.43 68.782 80.408 68.809 80.364 68.837 C 79.94 69.082 79.452 69.195 78.963 69.161 C 78.384 69.198 77.814 68.999 77.384 68.609 Z " fill="rgb(255,255,255)"/><path d=" M 81.065 69.018 C 81.027 68.973 81.009 68.914 81.013 68.856 L 81.013 65.207 C 81.009 65.146 81.027 65.086 81.065 65.039 C 81.113 64.998 81.174 64.979 81.236 64.985 L 81.555 64.985 C 81.618 64.979 81.68 64.999 81.729 65.039 C 81.768 65.086 81.788 65.146 81.783 65.207 L 81.783 68.857 C 81.787 68.915 81.769 68.973 81.732 69.019 C 81.683 69.06 81.619 69.079 81.555 69.073 L 81.236 69.073 C 81.174 69.078 81.112 69.059 81.065 69.018 Z  M 83.488 69.061 C 83.461 69.049 83.437 69.03 83.419 69.007 L 81.97 67.262 C 81.94 67.227 81.914 67.188 81.892 67.148 C 81.875 67.108 81.867 67.065 81.868 67.021 C 81.866 66.98 81.873 66.938 81.889 66.9 C 81.913 66.858 81.941 66.817 81.971 66.78 L 83.383 65.055 C 83.401 65.028 83.426 65.007 83.455 64.995 C 83.492 64.986 83.531 64.982 83.569 64.983 L 84.123 64.983 C 84.147 64.982 84.17 64.99 84.188 65.006 C 84.204 65.022 84.213 65.043 84.212 65.066 C 84.213 65.098 84.2 65.128 84.176 65.15 L 82.62 67.02 L 84.212 68.901 C 84.235 68.923 84.248 68.954 84.248 68.986 C 84.249 69.008 84.24 69.03 84.224 69.046 C 84.206 69.063 84.182 69.071 84.158 69.07 L 83.586 69.07 C 83.553 69.072 83.52 69.069 83.488 69.061 L 83.488 69.061 Z " fill="rgb(255,255,255)"/><path d=" M 84.933 68.609 C 84.538 68.181 84.336 67.61 84.373 67.028 C 84.335 66.448 84.534 65.878 84.924 65.447 C 85.35 65.056 85.918 64.856 86.495 64.893 C 86.75 64.892 87.005 64.92 87.253 64.978 C 87.461 65.024 87.661 65.106 87.842 65.219 C 87.872 65.234 87.892 65.263 87.896 65.297 C 87.894 65.327 87.883 65.356 87.866 65.381 L 87.698 65.67 C 87.674 65.706 87.651 65.724 87.631 65.724 C 87.601 65.719 87.572 65.709 87.546 65.694 C 87.251 65.531 86.916 65.451 86.579 65.465 C 86.185 65.442 85.8 65.584 85.515 65.856 C 85.236 66.18 85.097 66.601 85.13 67.027 C 85.096 67.459 85.24 67.885 85.528 68.208 C 85.818 68.476 86.204 68.616 86.598 68.596 C 86.955 68.61 87.31 68.529 87.626 68.362 C 87.65 68.347 87.676 68.337 87.704 68.332 C 87.728 68.332 87.751 68.35 87.775 68.386 L 87.961 68.698 C 87.972 68.717 87.978 68.737 87.979 68.758 C 87.979 68.782 87.957 68.809 87.913 68.837 C 87.489 69.082 87.001 69.195 86.512 69.161 C 85.933 69.198 85.363 68.999 84.933 68.609 Z " fill="rgb(255,255,255)"/><path d=" M 88.614 69.018 C 88.577 68.973 88.558 68.914 88.563 68.856 L 88.563 65.207 C 88.558 65.146 88.576 65.086 88.614 65.039 C 88.662 64.998 88.723 64.979 88.785 64.985 L 89.104 64.985 C 89.167 64.979 89.229 64.999 89.278 65.039 C 89.317 65.086 89.337 65.146 89.332 65.207 L 89.332 66.722 L 91.304 66.722 L 91.304 65.207 C 91.299 65.146 91.318 65.086 91.357 65.039 C 91.406 64.999 91.469 64.979 91.531 64.985 L 91.844 64.985 C 91.907 64.979 91.969 64.999 92.018 65.039 C 92.057 65.086 92.077 65.146 92.072 65.207 L 92.072 68.857 C 92.076 68.915 92.058 68.973 92.02 69.019 C 91.971 69.06 91.907 69.079 91.843 69.073 L 91.53 69.073 C 91.468 69.078 91.405 69.059 91.356 69.019 C 91.317 68.974 91.298 68.916 91.303 68.857 L 91.303 67.307 L 89.333 67.307 L 89.333 68.859 C 89.338 68.917 89.319 68.975 89.282 69.021 C 89.233 69.062 89.169 69.081 89.105 69.075 L 88.786 69.075 C 88.724 69.08 88.661 69.06 88.614 69.018 L 88.614 69.018 Z " fill="rgb(255,255,255)"/><path d=" M 92.659 68.982 C 92.66 68.955 92.666 68.928 92.677 68.903 L 94.263 65.141 C 94.281 65.093 94.311 65.051 94.351 65.018 C 94.386 64.994 94.429 64.982 94.471 64.985 L 94.802 64.985 C 94.846 64.981 94.889 64.993 94.925 65.018 C 94.96 65.052 94.985 65.095 95 65.141 L 96.586 68.903 C 96.598 68.928 96.604 68.955 96.604 68.982 C 96.604 69.042 96.569 69.072 96.505 69.072 L 95.982 69.072 C 95.944 69.075 95.905 69.068 95.871 69.051 C 95.842 69.028 95.82 68.998 95.808 68.963 L 95.466 68.121 L 93.799 68.121 L 93.462 68.963 C 93.45 68.998 93.428 69.028 93.4 69.051 C 93.365 69.068 93.326 69.075 93.288 69.072 L 92.766 69.072 C 92.697 69.072 92.659 69.042 92.659 68.982 Z  M 95.262 67.563 L 94.625 65.988 L 93.988 67.563 L 95.262 67.563 Z " fill="rgb(255,255,255)"/><path d=" M 97.237 69.018 C 97.2 68.973 97.181 68.914 97.186 68.856 L 97.186 65.207 C 97.181 65.146 97.199 65.086 97.237 65.039 C 97.285 64.998 97.346 64.979 97.408 64.985 L 97.727 64.985 C 97.79 64.979 97.852 64.999 97.901 65.039 C 97.94 65.086 97.96 65.146 97.955 65.207 L 97.955 68.857 C 97.959 68.915 97.941 68.973 97.904 69.019 C 97.855 69.06 97.791 69.079 97.727 69.073 L 97.408 69.073 C 97.346 69.078 97.284 69.059 97.237 69.018 Z " fill="rgb(255,255,255)"/><path d=" M 98.719 69.018 C 98.681 68.973 98.663 68.914 98.667 68.856 L 98.667 65.207 C 98.656 65.144 98.676 65.079 98.722 65.034 C 98.768 64.99 98.834 64.971 98.896 64.985 L 99.173 64.985 C 99.218 64.983 99.264 64.991 99.305 65.008 C 99.347 65.032 99.381 65.066 99.405 65.107 L 101.389 67.86 L 101.389 65.207 C 101.384 65.146 101.402 65.086 101.44 65.039 C 101.488 64.998 101.549 64.979 101.611 64.985 L 101.93 64.985 C 101.993 64.979 102.055 64.999 102.104 65.039 C 102.144 65.086 102.163 65.146 102.158 65.207 L 102.158 68.857 C 102.162 68.915 102.144 68.974 102.106 69.019 C 102.057 69.06 101.993 69.079 101.929 69.073 L 101.646 69.073 C 101.603 69.075 101.56 69.068 101.52 69.052 C 101.48 69.029 101.446 68.997 101.42 68.959 L 99.437 66.212 L 99.437 68.858 C 99.441 68.916 99.423 68.974 99.386 69.02 C 99.337 69.061 99.273 69.08 99.209 69.074 L 98.89 69.074 C 98.828 69.079 98.766 69.059 98.719 69.018 L 98.719 69.018 Z " fill="rgb(255,255,255)"/><path d=" M 105.404 69.018 C 105.367 68.973 105.348 68.914 105.353 68.856 L 105.353 65.207 C 105.348 65.146 105.366 65.086 105.404 65.039 C 105.452 64.998 105.514 64.979 105.576 64.985 L 107.313 64.985 C 107.655 64.96 107.994 65.066 108.26 65.284 C 108.479 65.495 108.596 65.791 108.581 66.095 C 108.584 66.278 108.534 66.457 108.437 66.612 C 108.343 66.763 108.204 66.881 108.039 66.949 C 108.46 67.056 108.743 67.453 108.706 67.886 C 108.709 68.098 108.656 68.306 108.552 68.49 C 108.444 68.674 108.284 68.821 108.093 68.914 C 107.856 69.025 107.596 69.079 107.335 69.071 L 105.581 69.071 C 105.517 69.078 105.453 69.059 105.404 69.018 Z  M 107.205 66.692 C 107.37 66.703 107.532 66.649 107.658 66.542 C 107.769 66.431 107.827 66.278 107.818 66.122 C 107.833 65.966 107.779 65.811 107.671 65.698 C 107.534 65.6 107.366 65.555 107.199 65.569 L 106.122 65.569 L 106.122 66.693 L 107.205 66.692 Z  M 107.294 68.489 C 107.466 68.512 107.638 68.456 107.763 68.337 C 107.888 68.218 107.952 68.048 107.937 67.876 C 107.95 67.698 107.88 67.524 107.747 67.405 C 107.597 67.29 107.41 67.233 107.222 67.244 L 106.127 67.244 L 106.127 68.488 L 107.294 68.489 Z " fill="rgb(255,255,255)"/><path d=" M 109.552 68.601 C 108.842 67.671 108.842 66.381 109.552 65.451 C 110.429 64.705 111.719 64.705 112.596 65.451 C 113.309 66.38 113.309 67.672 112.596 68.601 C 111.718 69.345 110.43 69.345 109.552 68.601 Z  M 112.04 68.195 C 112.48 67.479 112.48 66.576 112.04 65.86 C 111.507 65.331 110.647 65.331 110.114 65.86 C 109.668 66.574 109.668 67.48 110.114 68.195 C 110.369 68.451 110.716 68.595 111.077 68.595 C 111.438 68.595 111.785 68.451 112.04 68.195 Z " fill="rgb(255,255,255)"/><path d=" M 113.21 68.982 C 113.211 68.955 113.217 68.928 113.228 68.903 L 114.815 65.141 C 114.83 65.094 114.857 65.052 114.893 65.018 C 114.929 64.994 114.971 64.982 115.014 64.985 L 115.344 64.985 C 115.388 64.981 115.432 64.993 115.469 65.018 C 115.502 65.053 115.528 65.095 115.543 65.141 L 117.131 68.903 C 117.142 68.928 117.148 68.955 117.149 68.982 Q 117.149 69.072 117.049 69.072 L 116.526 69.072 C 116.488 69.075 116.45 69.068 116.415 69.051 C 116.386 69.028 116.365 68.998 116.352 68.963 L 116.01 68.121 L 114.346 68.121 L 114.009 68.963 C 113.997 68.998 113.975 69.028 113.946 69.051 C 113.912 69.068 113.873 69.075 113.835 69.072 L 113.313 69.072 C 113.244 69.072 113.21 69.042 113.21 68.982 Z  M 115.813 67.563 L 115.177 65.988 L 114.54 67.563 L 115.813 67.563 Z " fill="rgb(255,255,255)"/><path d=" M 117.786 69.018 C 117.749 68.972 117.73 68.914 117.735 68.856 L 117.735 65.207 C 117.73 65.146 117.749 65.086 117.786 65.039 C 117.834 64.998 117.896 64.979 117.958 64.985 L 119.531 64.985 C 119.913 64.958 120.291 65.073 120.592 65.309 C 120.849 65.561 120.982 65.912 120.956 66.271 C 120.963 66.525 120.894 66.775 120.757 66.989 C 120.616 67.194 120.414 67.351 120.18 67.437 L 120.847 68.916 C 120.858 68.937 120.864 68.959 120.865 68.982 C 120.865 69.042 120.828 69.072 120.756 69.072 L 120.259 69.072 C 120.219 69.075 120.18 69.067 120.144 69.051 C 120.114 69.029 120.091 68.999 120.079 68.963 L 119.471 67.539 L 118.504 67.539 L 118.504 68.856 C 118.508 68.914 118.49 68.972 118.452 69.018 C 118.403 69.059 118.339 69.078 118.275 69.072 L 117.957 69.072 C 117.895 69.077 117.834 69.058 117.786 69.018 Z  M 119.37 66.963 C 119.589 66.98 119.808 66.923 119.99 66.8 C 120.134 66.664 120.207 66.469 120.189 66.272 C 120.205 66.078 120.14 65.887 120.009 65.743 C 119.855 65.62 119.659 65.559 119.462 65.575 L 118.507 65.575 L 118.507 66.969 L 119.37 66.963 Z " fill="rgb(255,255,255)"/><path d=" M 121.592 69.018 C 121.555 68.972 121.536 68.914 121.541 68.856 L 121.541 65.207 C 121.536 65.146 121.555 65.086 121.592 65.039 C 121.64 64.998 121.702 64.979 121.764 64.985 L 122.966 64.985 C 123.527 64.946 124.081 65.12 124.52 65.471 C 124.914 65.889 125.11 66.456 125.058 67.028 C 125.132 67.598 124.934 68.17 124.523 68.572 C 124.112 68.974 123.536 69.159 122.968 69.072 L 121.766 69.072 C 121.703 69.078 121.64 69.059 121.592 69.018 Z  M 123.015 68.489 C 123.366 68.515 123.712 68.396 123.973 68.159 C 124.402 67.468 124.402 66.593 123.973 65.902 C 123.711 65.667 123.365 65.549 123.015 65.574 L 122.312 65.574 L 122.312 68.489 L 123.015 68.489 Z " fill="rgb(255,255,255)"/><path d=" M 127.862 68.601 C 127.152 67.671 127.152 66.381 127.862 65.451 C 128.739 64.705 130.028 64.705 130.906 65.451 C 131.619 66.38 131.619 67.672 130.906 68.601 C 130.028 69.345 128.74 69.345 127.862 68.601 Z  M 130.35 68.195 C 130.79 67.479 130.79 66.576 130.35 65.86 C 129.817 65.331 128.957 65.331 128.424 65.86 C 127.978 66.574 127.978 67.48 128.424 68.195 C 128.679 68.451 129.025 68.595 129.387 68.595 C 129.748 68.595 130.095 68.451 130.35 68.195 Z " fill="rgb(255,255,255)"/><path d=" M 132.08 69.018 C 132.043 68.972 132.024 68.914 132.029 68.856 L 132.029 65.207 C 132.024 65.146 132.043 65.086 132.08 65.039 C 132.128 64.998 132.19 64.979 132.252 64.985 L 134.753 64.985 C 134.812 64.979 134.871 64.996 134.917 65.033 C 134.952 65.079 134.968 65.137 134.963 65.195 L 134.963 65.357 C 134.968 65.416 134.951 65.475 134.917 65.522 C 134.872 65.562 134.812 65.581 134.753 65.574 L 132.799 65.574 L 132.799 66.735 L 134.217 66.735 C 134.277 66.728 134.338 66.746 134.385 66.782 C 134.422 66.828 134.44 66.886 134.434 66.945 L 134.434 67.108 C 134.439 67.167 134.422 67.226 134.385 67.273 C 134.339 67.312 134.278 67.331 134.217 67.325 L 132.799 67.325 L 132.799 68.858 C 132.803 68.916 132.785 68.974 132.747 69.02 C 132.698 69.061 132.634 69.08 132.57 69.074 L 132.252 69.074 C 132.189 69.079 132.128 69.059 132.08 69.018 Z " fill="rgb(255,255,255)"/><path d=" M 137.63 69.018 C 137.592 68.972 137.574 68.914 137.578 68.856 L 137.578 65.207 C 137.574 65.146 137.592 65.086 137.63 65.039 C 137.677 64.998 137.739 64.979 137.801 64.985 L 139.004 64.985 C 139.564 64.946 140.119 65.12 140.558 65.471 C 140.952 65.889 141.148 66.456 141.096 67.028 C 141.17 67.598 140.972 68.17 140.561 68.572 C 140.15 68.974 139.574 69.159 139.006 69.072 L 137.803 69.072 C 137.741 69.078 137.678 69.059 137.63 69.018 L 137.63 69.018 Z  M 139.052 68.489 C 139.404 68.515 139.75 68.396 140.011 68.159 C 140.439 67.468 140.439 66.593 140.011 65.902 C 139.749 65.667 139.403 65.549 139.052 65.574 L 138.35 65.574 L 138.35 68.489 L 139.052 68.489 Z " fill="rgb(255,255,255)"/><path d=" M 141.736 69.018 C 141.698 68.972 141.679 68.914 141.684 68.856 L 141.684 65.207 C 141.679 65.146 141.698 65.086 141.736 65.039 C 141.783 64.998 141.845 64.979 141.907 64.985 L 144.413 64.985 C 144.472 64.979 144.531 64.996 144.577 65.033 C 144.612 65.079 144.628 65.137 144.623 65.195 L 144.623 65.357 C 144.628 65.416 144.611 65.475 144.577 65.522 C 144.532 65.562 144.472 65.581 144.413 65.574 L 142.459 65.574 L 142.459 66.74 L 143.877 66.74 C 143.938 66.733 143.998 66.751 144.046 66.788 C 144.082 66.834 144.1 66.892 144.094 66.951 L 144.094 67.101 C 144.099 67.16 144.082 67.219 144.046 67.266 C 143.999 67.305 143.938 67.324 143.877 67.318 L 142.459 67.318 L 142.459 68.489 L 144.407 68.489 C 144.467 68.483 144.528 68.502 144.574 68.541 C 144.61 68.588 144.628 68.646 144.623 68.705 L 144.623 68.868 C 144.628 68.924 144.61 68.98 144.574 69.024 C 144.527 69.061 144.467 69.079 144.407 69.073 L 141.912 69.073 C 141.848 69.08 141.784 69.06 141.736 69.018 L 141.736 69.018 Z " fill="rgb(255,255,255)"/><path d=" M 145.198 69.018 C 145.16 68.972 145.142 68.914 145.146 68.856 L 145.146 65.207 C 145.142 65.146 145.16 65.086 145.198 65.039 C 145.245 64.998 145.307 64.979 145.369 64.985 L 146.938 64.985 C 147.319 64.958 147.698 65.073 147.999 65.309 C 148.256 65.561 148.389 65.912 148.363 66.271 C 148.37 66.525 148.301 66.775 148.164 66.989 C 148.023 67.194 147.821 67.351 147.587 67.437 L 148.253 68.916 C 148.264 68.937 148.271 68.959 148.271 68.982 C 148.271 69.042 148.235 69.072 148.163 69.072 L 147.665 69.072 C 147.626 69.075 147.587 69.067 147.551 69.051 C 147.52 69.029 147.497 68.999 147.485 68.963 L 146.878 67.539 L 145.911 67.539 L 145.911 68.856 C 145.915 68.914 145.896 68.972 145.859 69.018 C 145.81 69.059 145.746 69.078 145.682 69.072 L 145.363 69.072 C 145.303 69.076 145.244 69.057 145.198 69.018 L 145.198 69.018 Z  M 146.781 66.963 C 147.001 66.98 147.219 66.923 147.402 66.8 C 147.545 66.664 147.619 66.469 147.601 66.272 C 147.617 66.078 147.552 65.887 147.42 65.743 C 147.266 65.62 147.07 65.559 146.873 65.575 L 145.919 65.575 L 145.919 66.969 L 146.781 66.963 Z " fill="rgb(255,255,255)"/><path d=" M 149.002 69.018 C 148.964 68.972 148.946 68.914 148.95 68.856 L 148.95 65.207 C 148.946 65.146 148.964 65.086 149.002 65.039 C 149.049 64.998 149.111 64.979 149.173 64.985 L 149.492 64.985 C 149.554 64.979 149.617 64.999 149.666 65.039 C 149.705 65.086 149.724 65.146 149.72 65.207 L 149.72 68.857 C 149.724 68.915 149.705 68.973 149.668 69.019 C 149.618 69.06 149.554 69.079 149.491 69.073 L 149.172 69.073 C 149.11 69.078 149.049 69.058 149.002 69.018 L 149.002 69.018 Z " fill="rgb(255,255,255)"/><path d=" M 151.966 69.042 C 151.931 69.008 151.905 68.967 151.89 68.921 L 150.328 65.152 C 150.316 65.13 150.31 65.106 150.31 65.081 C 150.309 65.055 150.318 65.03 150.337 65.012 C 150.357 64.993 150.384 64.983 150.412 64.985 L 150.929 64.985 C 150.971 64.982 151.013 64.992 151.049 65.015 C 151.081 65.04 151.105 65.075 151.116 65.114 L 152.251 68.001 L 153.387 65.114 C 153.397 65.075 153.421 65.04 153.453 65.015 C 153.489 64.992 153.531 64.982 153.573 64.985 L 154.091 64.985 C 154.119 64.983 154.146 64.993 154.166 65.012 C 154.184 65.03 154.193 65.055 154.192 65.081 C 154.192 65.106 154.186 65.13 154.174 65.152 L 152.617 68.921 C 152.602 68.968 152.576 69.01 152.539 69.042 C 152.501 69.064 152.457 69.075 152.413 69.072 L 152.088 69.072 C 152.045 69.075 152.002 69.065 151.966 69.042 L 151.966 69.042 Z " fill="rgb(255,255,255)"/><path d=" M 153.73 68.982 C 153.731 68.955 153.737 68.928 153.748 68.903 L 155.335 65.141 C 155.35 65.094 155.377 65.052 155.413 65.018 C 155.449 64.994 155.491 64.982 155.534 64.985 L 155.864 64.985 C 155.908 64.981 155.952 64.993 155.989 65.018 C 156.023 65.053 156.048 65.095 156.063 65.141 L 157.65 68.899 C 157.661 68.924 157.667 68.951 157.668 68.978 Q 157.668 69.068 157.568 69.068 L 157.046 69.068 C 157.007 69.071 156.969 69.064 156.934 69.047 C 156.906 69.024 156.884 68.994 156.871 68.959 L 156.529 68.117 L 154.863 68.117 L 154.527 68.959 C 154.514 68.994 154.492 69.024 154.463 69.047 C 154.429 69.064 154.391 69.071 154.352 69.068 L 153.83 69.068 C 153.768 69.072 153.73 69.042 153.73 68.982 Z  M 156.333 67.563 L 155.697 65.988 L 155.06 67.563 L 156.333 67.563 Z " fill="rgb(255,255,255)"/><path d=" M 158.58 69.018 C 158.541 68.973 158.522 68.915 158.527 68.856 L 158.527 65.571 L 157.475 65.571 C 157.415 65.578 157.356 65.56 157.309 65.522 C 157.275 65.476 157.259 65.418 157.265 65.36 L 157.265 65.198 C 157.26 65.139 157.275 65.081 157.309 65.033 C 157.355 64.994 157.415 64.975 157.475 64.982 L 160.348 64.982 C 160.409 64.976 160.469 64.994 160.516 65.033 C 160.552 65.08 160.569 65.139 160.564 65.198 L 160.564 65.36 C 160.57 65.418 160.553 65.477 160.516 65.522 C 160.468 65.56 160.408 65.577 160.348 65.571 L 159.296 65.571 L 159.296 68.856 C 159.3 68.914 159.282 68.972 159.244 69.018 C 159.195 69.059 159.131 69.078 159.067 69.072 L 158.755 69.072 C 158.692 69.077 158.629 69.058 158.58 69.018 Z " fill="rgb(255,255,255)"/><path d=" M 161.084 69.018 C 161.047 68.972 161.028 68.914 161.033 68.856 L 161.033 65.207 C 161.028 65.146 161.047 65.086 161.084 65.039 C 161.132 64.998 161.194 64.979 161.256 64.985 L 161.574 64.985 C 161.637 64.979 161.699 64.999 161.748 65.039 C 161.788 65.086 161.807 65.146 161.802 65.207 L 161.802 68.857 C 161.806 68.915 161.788 68.973 161.75 69.019 C 161.701 69.06 161.637 69.079 161.573 69.073 L 161.255 69.073 C 161.193 69.078 161.131 69.058 161.084 69.018 L 161.084 69.018 Z " fill="rgb(255,255,255)"/><path d=" M 164.048 69.042 C 164.014 69.008 163.988 68.967 163.973 68.921 L 162.41 65.152 C 162.398 65.13 162.392 65.106 162.392 65.081 C 162.391 65.055 162.401 65.03 162.419 65.012 C 162.439 64.993 162.467 64.983 162.495 64.985 L 163.011 64.985 C 163.054 64.982 163.096 64.992 163.132 65.015 C 163.164 65.04 163.187 65.075 163.198 65.114 L 164.334 68.001 L 165.47 65.114 C 165.48 65.075 165.503 65.04 165.535 65.015 C 165.571 64.992 165.613 64.982 165.656 64.985 L 166.173 64.985 C 166.201 64.983 166.229 64.993 166.249 65.012 C 166.266 65.03 166.276 65.055 166.275 65.081 C 166.274 65.106 166.268 65.13 166.257 65.152 L 164.699 68.921 C 164.685 68.968 164.658 69.01 164.622 69.042 C 164.584 69.064 164.539 69.075 164.495 69.072 L 164.171 69.072 C 164.128 69.075 164.085 69.065 164.048 69.042 Z " fill="rgb(255,255,255)"/><path d=" M 166.824 69.018 C 166.787 68.972 166.768 68.914 166.772 68.856 L 166.772 65.207 C 166.768 65.146 166.786 65.086 166.824 65.039 C 166.871 64.998 166.933 64.979 166.995 64.985 L 169.493 64.985 C 169.552 64.979 169.611 64.996 169.658 65.033 C 169.692 65.079 169.709 65.137 169.703 65.195 L 169.703 65.357 C 169.708 65.416 169.692 65.475 169.658 65.522 C 169.613 65.562 169.553 65.581 169.493 65.574 L 167.54 65.574 L 167.54 66.74 L 168.958 66.74 C 169.018 66.733 169.079 66.751 169.126 66.788 C 169.163 66.834 169.181 66.892 169.175 66.951 L 169.175 67.101 C 169.18 67.16 169.163 67.219 169.126 67.266 C 169.079 67.305 169.019 67.324 168.958 67.318 L 167.54 67.318 L 167.54 68.489 L 169.493 68.489 C 169.554 68.483 169.614 68.502 169.661 68.541 C 169.697 68.588 169.714 68.646 169.709 68.705 L 169.709 68.868 C 169.714 68.924 169.697 68.98 169.661 69.024 C 169.613 69.061 169.553 69.079 169.493 69.073 L 166.998 69.073 C 166.935 69.079 166.872 69.059 166.824 69.018 Z " fill="rgb(255,255,255)"/><path d=" M 170.858 69.069 C 170.624 69.023 170.4 68.934 170.199 68.807 Q 170.12 68.753 170.12 68.707 C 170.12 68.681 170.128 68.656 170.144 68.635 L 170.343 68.322 C 170.367 68.286 170.389 68.268 170.409 68.268 C 170.437 68.271 170.465 68.281 170.488 68.298 C 170.65 68.392 170.824 68.464 171.005 68.511 C 171.2 68.566 171.401 68.593 171.602 68.593 C 171.816 68.607 172.03 68.56 172.218 68.458 C 172.361 68.36 172.44 68.194 172.425 68.022 C 172.43 67.92 172.403 67.819 172.348 67.733 C 172.287 67.654 172.208 67.591 172.119 67.547 C 172.019 67.494 171.856 67.424 171.632 67.337 L 171.494 67.283 C 171.272 67.198 171.057 67.098 170.848 66.985 C 170.681 66.892 170.536 66.762 170.425 66.606 C 170.309 66.439 170.25 66.239 170.257 66.036 C 170.242 65.702 170.399 65.383 170.674 65.191 C 170.998 64.979 171.381 64.875 171.769 64.892 C 172.01 64.889 172.252 64.915 172.487 64.971 C 172.676 65.018 172.854 65.099 173.013 65.211 C 173.06 65.248 173.084 65.282 173.084 65.31 C 173.085 65.335 173.076 65.358 173.06 65.376 L 172.868 65.689 C 172.844 65.725 172.824 65.742 172.809 65.742 C 172.78 65.737 172.753 65.725 172.73 65.707 C 172.442 65.534 172.11 65.448 171.775 65.46 C 171.574 65.446 171.375 65.495 171.203 65.598 C 171.069 65.703 170.997 65.868 171.011 66.037 C 171.006 66.143 171.034 66.247 171.093 66.336 C 171.155 66.417 171.236 66.483 171.33 66.526 C 171.429 66.577 171.601 66.648 171.834 66.736 L 171.985 66.795 C 172.221 66.885 172.45 66.993 172.67 67.117 C 172.825 67.207 172.956 67.333 173.051 67.484 C 173.148 67.655 173.195 67.849 173.187 68.045 C 173.199 68.364 173.054 68.668 172.799 68.86 C 172.474 69.078 172.086 69.183 171.696 69.158 C 171.414 69.16 171.133 69.13 170.858 69.069 Z " fill="rgb(255,255,255)"/></g><g id="Group"><path d=" M 31.037 28.649 C 31.426 28.654 31.796 28.818 32.06 29.104 L 34.959 32.058 C 36.725 31.257 38.644 30.849 40.584 30.863 C 42.559 30.857 44.514 31.264 46.323 32.058 L 49.334 29.144 C 49.622 28.853 50.006 28.676 50.414 28.646 C 50.794 28.666 51.147 28.851 51.379 29.153 L 56.891 34.608 C 57.179 34.842 57.345 35.193 57.345 35.564 C 57.345 35.934 57.179 36.285 56.891 36.52 L 53.766 39.613 C 55.281 43.171 55.281 47.192 53.766 50.75 L 56.83 53.821 C 57.131 54.079 57.315 54.448 57.341 54.844 C 57.307 55.251 57.1 55.623 56.773 55.867 L 51.318 61.322 C 51.063 61.604 50.703 61.769 50.323 61.777 C 49.957 61.775 49.613 61.608 49.385 61.322 L 46.26 58.197 C 44.512 58.956 42.626 59.343 40.72 59.334 C 38.805 59.338 36.907 58.97 35.133 58.25 L 32.064 61.369 C 31.488 61.905 30.596 61.905 30.019 61.369 L 24.678 55.886 C 24.363 55.639 24.184 55.258 24.195 54.858 C 24.218 54.466 24.391 54.098 24.678 53.83 L 27.689 50.803 C 26.885 49.057 26.477 47.156 26.495 45.234 C 26.482 43.291 26.847 41.363 27.569 39.559 L 24.557 36.491 C 24.292 36.228 24.148 35.868 24.159 35.495 C 24.147 35.133 24.268 34.779 24.5 34.5 L 30.012 29.102 C 30.277 28.816 30.648 28.652 31.037 28.649 Z  M 36.505 40.907 C 35.375 42.02 34.747 43.546 34.768 45.133 C 34.742 46.703 35.357 48.217 36.471 49.324 C 37.553 50.46 39.061 51.09 40.629 51.062 C 42.215 51.082 43.741 50.454 44.855 49.324 C 46.005 48.236 46.648 46.716 46.626 45.133 C 46.597 41.845 43.949 39.183 40.662 39.135 C 39.09 39.118 37.582 39.761 36.505 40.908 L 36.505 40.907 Z " fill="rgb(255,255,255)"/><g id="Group"><path d=" M 65.88 59.783 C 65.497 59.405 65.286 58.886 65.298 58.348 L 65.298 32.075 C 65.278 31.529 65.49 31.001 65.88 30.62 C 66.264 30.247 66.781 30.044 67.316 30.057 L 76.59 30.057 C 78.189 30.027 79.772 30.38 81.208 31.085 C 82.507 31.731 83.602 32.725 84.37 33.957 C 85.139 35.21 85.536 36.657 85.514 38.128 C 85.53 39.345 85.171 40.537 84.486 41.543 C 83.768 42.58 82.801 43.421 81.673 43.988 C 85.109 44.624 87.537 47.716 87.338 51.205 C 87.364 52.869 86.927 54.508 86.076 55.939 C 85.233 57.339 84.008 58.469 82.545 59.198 C 80.95 59.993 79.186 60.393 77.404 60.362 L 67.317 60.362 C 66.779 60.375 66.259 60.166 65.88 59.783 L 65.88 59.783 Z  M 76.591 42.515 C 77.907 42.582 79.205 42.184 80.258 41.39 C 81.203 40.58 81.713 39.373 81.636 38.131 C 81.716 36.894 81.205 35.692 80.258 34.891 C 79.2 34.109 77.904 33.719 76.591 33.786 L 69.334 33.786 L 69.334 42.515 L 76.591 42.515 Z  M 77.405 56.639 C 78.99 56.714 80.548 56.211 81.79 55.222 C 82.932 54.21 83.547 52.73 83.458 51.207 C 83.539 49.784 82.924 48.411 81.81 47.524 C 80.527 46.614 78.975 46.163 77.405 46.243 L 69.334 46.243 L 69.334 56.64 L 77.405 56.639 Z " fill="rgb(255,255,255)"/><path d=" M 91.917 59.783 C 91.533 59.405 91.322 58.886 91.334 58.348 L 91.334 32.075 C 91.315 31.529 91.526 31.001 91.917 30.62 C 92.3 30.247 92.817 30.044 93.352 30.057 L 102.626 30.057 C 104.225 30.027 105.808 30.38 107.243 31.085 C 108.542 31.731 109.637 32.725 110.405 33.957 C 111.174 35.21 111.571 36.657 111.549 38.128 C 111.565 39.345 111.206 40.537 110.521 41.543 C 109.803 42.58 108.836 43.421 107.708 43.988 C 111.145 44.624 113.572 47.716 113.373 51.205 C 113.399 52.869 112.962 54.508 112.111 55.939 C 111.268 57.339 110.043 58.469 108.58 59.198 C 106.985 59.993 105.221 60.393 103.439 60.362 L 93.356 60.362 C 92.817 60.376 92.296 60.166 91.917 59.783 Z  M 102.627 42.515 C 103.943 42.582 105.241 42.184 106.293 41.39 C 107.238 40.58 107.748 39.373 107.671 38.131 C 107.751 36.894 107.241 35.692 106.294 34.891 C 105.237 34.109 103.941 33.719 102.628 33.786 L 95.37 33.786 L 95.37 42.515 L 102.627 42.515 Z  M 103.441 56.639 C 105.026 56.714 106.584 56.211 107.826 55.222 C 108.968 54.21 109.583 52.73 109.494 51.207 C 109.575 49.784 108.96 48.411 107.846 47.524 C 106.564 46.614 105.012 46.163 103.442 46.243 L 95.37 46.243 L 95.37 56.64 L 103.441 56.639 Z " fill="rgb(255,255,255)"/><path d=" M 123.214 58.775 C 120.906 57.489 119.014 55.571 117.762 53.245 C 116.441 50.769 115.774 47.998 115.822 45.193 C 115.772 42.394 116.44 39.629 117.762 37.161 C 119.019 34.844 120.91 32.933 123.214 31.652 C 128.216 29.013 134.198 29.013 139.201 31.652 C 141.508 32.936 143.405 34.846 144.675 37.161 C 146.008 39.626 146.683 42.392 146.634 45.193 C 146.681 48.001 146.007 50.773 144.675 53.245 C 143.414 55.565 141.525 57.482 139.222 58.775 C 134.213 61.413 128.225 61.413 123.216 58.775 L 123.214 58.775 Z  M 137.164 55.535 C 138.902 54.509 140.325 53.025 141.278 51.246 C 143.243 47.45 143.243 42.936 141.278 39.14 C 140.331 37.368 138.915 35.891 137.184 34.872 C 133.483 32.803 128.972 32.803 125.271 34.872 C 123.54 35.891 122.124 37.368 121.177 39.14 C 119.212 42.936 119.212 47.45 121.177 51.246 C 122.13 53.026 123.553 54.509 125.291 55.535 C 128.972 57.629 133.484 57.629 137.165 55.535 L 137.164 55.535 Z " fill="rgb(255,255,255)"/><path d=" M 151.361 59.783 C 150.979 59.405 150.77 58.887 150.782 58.35 L 150.782 32.075 C 150.763 31.529 150.974 31.001 151.365 30.62 C 151.748 30.247 152.265 30.044 152.8 30.057 L 159.823 30.057 C 162.549 30.008 165.239 30.677 167.623 31.997 C 169.864 33.255 171.706 35.117 172.939 37.371 C 174.234 39.771 174.889 42.463 174.841 45.189 C 174.888 47.922 174.233 50.621 172.939 53.028 C 171.711 55.291 169.868 57.16 167.623 58.421 C 165.239 59.742 162.549 60.411 159.823 60.361 L 152.8 60.361 C 152.261 60.375 151.74 60.166 151.361 59.783 Z  M 159.82 56.797 C 161.839 56.831 163.829 56.322 165.583 55.323 C 167.269 54.348 168.642 52.912 169.54 51.184 C 171.428 47.417 171.428 42.98 169.54 39.214 C 168.636 37.496 167.263 36.07 165.582 35.1 C 163.828 34.102 161.838 33.593 159.819 33.626 L 154.814 33.626 L 154.814 56.795 L 159.82 56.797 Z " fill="rgb(255,255,255)"/></g></g><rect x="0" y="0.425" width="199" height="89.575" transform="matrix(1,0,0,1,0,0)" fill="none"/></g></g></svg>