<svg xmlns="http://www.w3.org/2000/svg" viewBox="0 0 199.947 90.001">
  <title>Asset 15</title>
  <g id="Layer_2" data-name="Layer 2">
    <g id="Layer_1-2" data-name="Layer 1">
      <g>
        <path d="M31.185,28.358a1.423,1.423,0,0,1,1.028.457l2.912,2.968a13.445,13.445,0,0,1,5.652-1.2,14.234,14.234,0,0,1,5.766,1.2l3.026-2.928a1.7,1.7,0,0,1,1.085-.5,1.311,1.311,0,0,1,.97.509l5.538,5.481a1.239,1.239,0,0,1,0,1.921l-3.14,3.108a14.28,14.28,0,0,1,0,11.19L57.1,53.65a1.48,1.48,0,0,1,.514,1.028,1.432,1.432,0,0,1-.571,1.028l-5.481,5.481a1.392,1.392,0,0,1-1,.457,1.213,1.213,0,0,1-.942-.457l-3.14-3.14a13.8,13.8,0,0,1-5.566,1.142A14.852,14.852,0,0,1,35.3,58.1l-3.083,3.134a1.509,1.509,0,0,1-2.055,0l-5.367-5.509a1.27,1.27,0,0,1-.485-1.033,1.539,1.539,0,0,1,.485-1.033l3.026-3.042a13.066,13.066,0,0,1-1.2-5.595A15.084,15.084,0,0,1,27.7,39.32l-3.026-3.083a1.353,1.353,0,0,1-.4-1,1.482,1.482,0,0,1,.343-1l5.538-5.424A1.42,1.42,0,0,1,31.185,28.358Zm5.494,12.316a5.854,5.854,0,0,0-1.746,4.246,5.8,5.8,0,0,0,1.712,4.211,5.627,5.627,0,0,0,4.177,1.747,5.856,5.856,0,0,0,4.246-1.747,5.686,5.686,0,0,0,1.78-4.211,6.08,6.08,0,0,0-5.992-6.026A5.648,5.648,0,0,0,36.679,40.675Z" fill="#fff"/>
        <g>
          <path d="M66.194,59.64a1.96,1.96,0,0,1-.585-1.442V31.8a1.944,1.944,0,0,1,.585-1.462,2,2,0,0,1,1.442-.565h9.318a10.085,10.085,0,0,1,4.64,1.033,7.866,7.866,0,0,1,3.177,2.885,7.784,7.784,0,0,1,1.15,4.191,5.963,5.963,0,0,1-1.033,3.431,7.573,7.573,0,0,1-2.826,2.457,6.972,6.972,0,0,1,5.692,7.251,9.044,9.044,0,0,1-1.268,4.757,8.645,8.645,0,0,1-3.548,3.274,11.15,11.15,0,0,1-5.166,1.17H67.637A1.961,1.961,0,0,1,66.194,59.64Zm10.761-17.35a5.646,5.646,0,0,0,3.685-1.13,3.987,3.987,0,0,0,1.384-3.275A3.929,3.929,0,0,0,80.64,34.63a5.712,5.712,0,0,0-3.685-1.111H69.664v8.771Zm.818,14.191a6.576,6.576,0,0,0,4.406-1.423,5,5,0,0,0,1.676-4.035,4.41,4.41,0,0,0-1.656-3.7,7.024,7.024,0,0,0-4.426-1.287H69.664V56.482Z" fill="#fff"/>
          <path d="M92.354,59.64a1.96,1.96,0,0,1-.585-1.442V31.8a1.944,1.944,0,0,1,.585-1.462,2,2,0,0,1,1.442-.565h9.318a10.083,10.083,0,0,1,4.639,1.033,7.866,7.866,0,0,1,3.177,2.885,7.784,7.784,0,0,1,1.15,4.191,5.963,5.963,0,0,1-1.033,3.431,7.573,7.573,0,0,1-2.826,2.457,6.972,6.972,0,0,1,5.692,7.251,9.044,9.044,0,0,1-1.268,4.757,8.645,8.645,0,0,1-3.548,3.274,11.148,11.148,0,0,1-5.166,1.17H93.8A1.961,1.961,0,0,1,92.354,59.64Zm10.761-17.35a5.643,5.643,0,0,0,3.684-1.13,3.987,3.987,0,0,0,1.384-3.275A3.929,3.929,0,0,0,106.8,34.63a5.709,5.709,0,0,0-3.684-1.111H95.824v8.771Zm.818,14.191a6.574,6.574,0,0,0,4.406-1.423,5,5,0,0,0,1.676-4.035,4.41,4.41,0,0,0-1.656-3.7,7.022,7.022,0,0,0-4.425-1.287H95.824V56.482Z" fill="#fff"/>
          <path d="M123.8,58.627a13.908,13.908,0,0,1-5.478-5.556,16.587,16.587,0,0,1-1.949-8.09,16.479,16.479,0,0,1,1.949-8.07,13.946,13.946,0,0,1,5.478-5.536,17.216,17.216,0,0,1,16.063,0,14.083,14.083,0,0,1,5.5,5.536,16.362,16.362,0,0,1,1.969,8.07,16.469,16.469,0,0,1-1.969,8.09,14.078,14.078,0,0,1-5.478,5.556,17.256,17.256,0,0,1-16.083,0Zm14.017-3.255a11.082,11.082,0,0,0,4.133-4.309,13.226,13.226,0,0,0,0-12.164,10.976,10.976,0,0,0-4.113-4.288,12.263,12.263,0,0,0-11.97,0,10.976,10.976,0,0,0-4.113,4.288,13.226,13.226,0,0,0,0,12.164,11.075,11.075,0,0,0,4.133,4.309,12.064,12.064,0,0,0,11.931,0Z" fill="#fff"/>
          <path d="M152.081,59.64A1.96,1.96,0,0,1,151.5,58.2V31.8a1.944,1.944,0,0,1,.585-1.462,2,2,0,0,1,1.442-.565h7.057a15.593,15.593,0,0,1,7.837,1.949,13.772,13.772,0,0,1,5.341,5.4,15.945,15.945,0,0,1,1.911,7.855,16.059,16.059,0,0,1-1.911,7.876,13.73,13.73,0,0,1-5.341,5.419,15.582,15.582,0,0,1-7.837,1.949h-7.057A1.961,1.961,0,0,1,152.081,59.64Zm8.5-3a11.322,11.322,0,0,0,5.79-1.481A10.286,10.286,0,0,0,170.347,51a13.42,13.42,0,0,0,0-12.027,10.328,10.328,0,0,0-3.977-4.133,11.331,11.331,0,0,0-5.79-1.481h-5.029V56.638Z" fill="#fff"/>
        </g>
      </g>
      <rect width="199.947" height="90.001" fill="none"/>
    </g>
  </g>
</svg>
