<svg xmlns="http://www.w3.org/2000/svg" viewBox="0 0 113.386 113.386">
  <title>Asset 12</title>
  <g id="Layer_2" data-name="Layer 2">
    <g id="Layer_1-2" data-name="Layer 1">
      <path d="M40.218,28.609a2.4,2.4,0,0,1,1.734.771l4.913,5.009A22.689,22.689,0,0,1,56.4,32.366a24.02,24.02,0,0,1,9.731,2.023l5.106-4.941a2.868,2.868,0,0,1,1.831-.838,2.212,2.212,0,0,1,1.638.858l9.345,9.249a2.09,2.09,0,0,1,0,3.242l-5.3,5.245a24.1,24.1,0,0,1,0,18.883l5.2,5.2a2.5,2.5,0,0,1,.867,1.734,2.416,2.416,0,0,1-.963,1.735l-9.249,9.249a2.349,2.349,0,0,1-1.686.771,2.047,2.047,0,0,1-1.589-.771l-5.3-5.3a23.287,23.287,0,0,1-9.393,1.927,25.063,25.063,0,0,1-9.489-1.83l-5.2,5.288a2.546,2.546,0,0,1-3.468.007l-9.056-9.3a2.143,2.143,0,0,1-.819-1.744,2.6,2.6,0,0,1,.819-1.743l5.106-5.133a22.049,22.049,0,0,1-2.023-9.442,25.454,25.454,0,0,1,1.831-9.634l-5.106-5.2a2.283,2.283,0,0,1-.674-1.686,2.5,2.5,0,0,1,.578-1.686l9.345-9.153A2.4,2.4,0,0,1,40.218,28.609ZM49.49,49.393a9.879,9.879,0,0,0-2.946,7.165,9.779,9.779,0,0,0,2.889,7.106,9.5,9.5,0,0,0,7.049,2.948,9.881,9.881,0,0,0,7.165-2.948,9.594,9.594,0,0,0,3-7.106A10.259,10.259,0,0,0,56.539,46.389,9.53,9.53,0,0,0,49.49,49.393Z" fill="#144e98"/>
      <rect width="113.386" height="113.386" fill="none"/>
    </g>
  </g>
</svg>
