<?xml version="1.0" encoding="UTF-8" standalone="no"?>
<!-- Created with Inkscape (http://www.inkscape.org/) -->

<svg
   xmlns:dc="http://purl.org/dc/elements/1.1/"
   xmlns:cc="http://creativecommons.org/ns#"
   xmlns:rdf="http://www.w3.org/1999/02/22-rdf-syntax-ns#"
   xmlns:svg="http://www.w3.org/2000/svg"
   xmlns="http://www.w3.org/2000/svg"
   version="1.1"
   width="800"
   height="500"
   id="svg2">
  <defs
     id="defs4" />
  <metadata
     id="metadata7">
    <rdf:RDF>
      <cc:Work
         rdf:about="">
        <dc:format>image/svg+xml</dc:format>
        <dc:type
           rdf:resource="http://purl.org/dc/dcmitype/StillImage" />
        <dc:title></dc:title>
      </cc:Work>
    </rdf:RDF>
  </metadata>
  <g
     transform="translate(0,-552)"
     id="layer1">
    <rect
       width="245.7"
       height="446"
       x="25.7"
       y="579.5"
       id="rect2996"
       style="fill:#017eb8;fill-opacity:1;fill-rule:nonzero;stroke:none" />
    <rect
       width="245.7"
       height="446"
       x="540"
       y="579.5"
       id="rect2996-1"
       style="fill:#017eb8;fill-opacity:1;fill-rule:nonzero;stroke:none" />
    <rect
       width="245.7"
       height="446"
       x="282.4"
       y="579.5"
       id="rect2996-1-7"
       style="fill:#017eb8;fill-opacity:1;fill-rule:nonzero;stroke:none" />
    <path
       d="m 218.1,727.4 c 4,-14.1 5.3,-28.4 5.3,-43.5 0,-41.3 -16.3,-91.8 -75.7,-91.8 -64.84,0 -82.9,54 -82.9,109.9 0,145.7 118.2,75.3 118.2,199.8 0,45.5 -9.7,60.8 -33,60.8 -28.3,0 -31.5,-24 -31.5,-54.6 0,-17.7 -0.9,-36 3.2,-53.3 l -49.44,1.9 c -5.81,17.3 -7.07,35 -7.07,53.8 0,44.4 9.82,100.6 84.21,100.6 63.6,0 88.1,-43.1 88.1,-119 0,-171.9 -119.7,-89.9 -119.7,-205.8 0,-17.2 -0.3,-47.8 26.7,-47.8 23.5,0 28.6,21.9 28.6,47.8 0,16.1 -1.1,30.4 -2.9,45 z"
       id="path3038"
       style="fill:#ffffff;stroke:none" />
    <path
       d="m 329.4,594.4 0,409.6 151.7,0 0,-51.5 -94,0 0,-358.1 z"
       id="path3040"
       style="fill:#ffffff;stroke:none" />
    <path
       d="m 736.5,594.4 0,306.2 c 0,59.4 -14.2,112.4 -85.2,112.4 -55.1,0 -82.1,-45.6 -82.1,-97.2 0,-20.5 1.5,-41 6.1,-61.5 l 54.8,-1.8 c -5.7,19.7 -5.8,39.2 -5.8,59.1 0,22 2.6,47.5 27.7,47.5 24.7,0 27.3,-30.3 27.3,-66.6 l 0,-298.1 z"
       id="path3042"
       style="fill:#ffffff;stroke:none" />
  </g>
</svg>
