<?xml version="1.0" encoding="UTF-8" standalone="no"?>
<!DOCTYPE svg PUBLIC "-//W3C//DTD SVG 1.1//EN" "http://www.w3.org/Graphics/SVG/1.1/DTD/svg11.dtd">
<svg
    xmlns:svg="http://www.w3.org/2000/svg"
    xmlns="http://www.w3.org/2000/svg"
    version="1.1"
    width="1000"
    height="387.81656"
    id="svg4661">
  <defs id="defs4663" />
  <path
      d="m 0,387.81657 1000,0 L 1000,0 0,0 0,387.81657 z"
      id="path1794"
      style="fill:#005e9d;fill-opacity:1;fill-rule:nonzero;stroke:none;"
  />
  <path
      d="m 526.23026,184.78168 0,-9.03967 c -5.48474,0 -9.03926,0.4591 -12.59459,4.9769 -3.75806,-2.03139 -7.97278,-3.14865 -12.28988,-3.14865 -11.27418,0 -20.7705,6.04337 -20.7705,18.1809 0,7.46534 2.79112,11.02026 8.73455,14.98146 -4.51943,0.86537 -8.32827,3.04708 -8.32827,8.17632 0,2.79519 2.48641,5.9418 5.07846,6.9575 -5.2816,2.49048 -8.37987,5.07846 -8.37987,11.37575 0,11.07105 14.98187,12.69616 23.25936,12.69616 11.52811,0 24.88446,-2.69362 24.88446,-16.96207 0,-12.5438 -15.23539,-12.89929 -24.27464,-14.06734 -2.03139,-0.28439 -8.48103,-1.0685 -8.48103,-3.75806 0,-1.06851 0.86537,-1.92981 1.82824,-2.23452 2.03139,0.75974 4.21553,0.86131 6.44965,0.86131 11.52811,0 20.77091,-5.48474 20.77091,-18.02855 0,-3.65649 -1.17008,-7.21141 -3.4046,-10.10614 1.36915,-0.86537 2.99832,-1.16601 4.62181,-1.16601 0.96287,0 1.92981,0.0813 2.89269,0.28439 z m -17.97776,10.71555 c 0,4.72297 -1.72668,8.17633 -6.90671,8.17633 -5.18003,0 -7.00787,-3.55493 -7.00787,-8.2779 0,-4.72297 1.92982,-7.9224 7.00787,-7.9224 5.07847,0 6.90671,3.29897 6.90671,8.02397 z m 5.12965,39.40887 c 0,4.72297 -9.34477,4.82454 -12.59458,4.82454 -4.46945,0 -12.34107,-1.26758 -12.34107,-7.05906 0,-2.08014 1.26758,-3.6565 3.09989,-4.51984 4.6214,1.5723 9.49673,2.3361 14.32167,2.8927 1.52354,0.20313 3.14865,0.28439 4.621,0.75974 1.42197,0.50784 2.89675,1.37321 2.89675,3.09989 m -77.09146,-5.89305 0,-50.22599 -14.42243,0 0,35.85394 c -2.23452,2.23453 -5.07846,4.36748 -8.37946,4.36748 -3.90838,0 -5.18003,-2.79519 -5.18003,-6.39886 l 0,-33.82256 -14.42324,0 0,35.54924 c 0,8.8873 3.09989,15.8448 13.00086,15.8448 5.38317,0 11.62968,-2.79519 15.43853,-6.65279 l 0.50784,5.48474 13.45793,0 m 40.17104,-36.71728 0,-14.82911 c -9.24321,0 -12.49302,2.48641 -16.8609,10.51242 l -0.36565,-9.29359 -13.25479,0 0,50.32756 14.42243,0 0,-27.47448 c 2.69362,-4.72297 5.84023,-9.75065 11.98517,-9.75065 1.36915,0 2.69362,0.12189 4.06318,0.50785 m -90.14474,11.47935 c 0,-11.47732 -2.43766,-25.95094 -16.81011,-25.95094 -4.36708,0 -10.41045,1.92982 -13.66066,4.92611 l 0,-21.48189 -14.42324,0 0,67.74668 13.45833,0 0.7638,-4.92611 c 3.55492,3.09583 7.97278,5.89102 12.79773,5.89102 14.42242,0 17.87618,-14.42283 17.87618,-26.20487 z m -15.28658,0.0813 c 0,5.48473 -0.66223,14.93067 -8.07475,14.93067 -2.68955,0 -5.18003,-1.6251 -7.10944,-3.45335 l 0,-23.51328 c 2.08014,-1.92982 4.72256,-3.20146 7.5665,-3.20146 7.51612,0 7.61769,9.85221 7.61769,15.23538 m -39.00218,25.13636 0,-37.02199 c 0,-8.83652 -3.85963,-14.37205 -13.204,-14.37205 -6.04337,0 -11.32497,3.30303 -15.5405,7.51613 -2.43766,-4.72297 -6.34808,-7.51613 -11.73125,-7.51613 -6.24651,0 -11.52811,2.99833 -15.8448,7.2622 l -0.2844,-6.09415 -13.10202,0 0,50.22599 14.42242,0 0,-35.54924 c 2.03139,-2.53923 4.72338,-4.51983 8.07476,-4.51983 4.31669,0 5.18003,3.75807 5.18003,7.31299 l 0,32.75608 14.42324,0 0,-35.44767 c 2.03138,-2.33609 4.72256,-4.6214 8.02356,-4.6214 5.07847,0 5.18003,3.6565 5.18003,7.66848 l 0,32.40059 14.42324,0 m -79.12244,0 0,-35.19374 c 0,-12.69616 -8.9385,-16.65736 -20.26347,-16.65736 -9.34437,0 -17.31715,3.25022 -21.53227,12.03596 l 11.73125,5.02767 c 1.42196,-3.9612 4.41785,-6.09415 8.63298,-6.09415 4.6214,0 7.21141,2.23452 7.21141,6.95749 l 0,2.03139 c -11.62927,1.3204 -28.33741,4.31669 -28.33741,19.34894 0,8.98888 6.60159,13.71185 15.08263,13.71185 5.07846,0 11.02026,-2.48642 14.2201,-6.44965 l 0.66223,5.2816 12.59458,0 z M 238.6991,215.48 c -2.43766,2.23452 -5.48433,4.26591 -8.83612,4.26591 -3.45335,0 -5.38357,-1.62511 -5.38357,-5.23082 0,-7.00827 8.9385,-7.97318 14.21969,-8.68417 l 0,9.64908 m -36.311,13.50871 0,-64.29333 -15.03225,0 0,25.13839 -21.32914,0 0,-25.13839 -14.98187,0 0,64.29333 14.98187,0 0,-27.27134 21.32914,0 0,27.27134 15.03225,0"
      id="path1822"
      style="fill:#ffffff;fill-opacity:1;fill-rule:evenodd;stroke:none;"
  />
  <path
      d="m 841.50119,229.01305 7.41456,0 0,-66.60383 -7.41456,0 0,66.60383 z m -14.42242,0 0,-35.85394 c 0,-9.903 -6.04337,-15.13382 -17.21639,-15.13382 -12.74654,0 -17.87619,9.14123 -17.87619,9.14123 l 6.2977,3.85963 c 0,0 3.60774,-6.9067 11.42654,-6.9067 6.60159,0 10.05535,3.90838 10.05535,9.5475 l 0,3.55493 c -11.2234,1.3204 -28.03311,3.9612 -28.03311,18.58717 0,8.48103 5.38317,14.06734 13.71144,14.06734 6.44965,0 10.76634,-1.82825 14.72754,-6.85592 l 0,5.99258 6.90712,0 z m -7.31299,-12.5438 c -4.11355,6.19572 -8.22711,7.46534 -12.64577,7.46534 -4.92571,0 -7.92241,-3.30303 -7.92241,-8.68417 0,-9.95379 13.20401,-11.78203 20.56818,-12.64537 l 0,13.8642 m -38.69788,12.5438 0,-34.38119 c 0,-9.85221 -2.33609,-16.14951 -13.35636,-16.14951 -5.38317,0 -10.76634,3.50617 -14.82951,6.65279 l -0.0813,-5.84023 -7.00827,0 0,49.71814 7.41455,0 0,-38.34239 c 3.55492,-2.79518 8.53222,-6.19572 13.15322,-6.19572 5.99258,0 7.31339,3.65649 7.31339,8.98888 l 0,35.54923 7.41455,0 m -43.82753,-43.01254 0,-7.9224 c -0.66223,0 -1.57636,0.0813 -2.49048,0.20314 -8.07435,0.7638 -11.17262,5.12924 -14.8287,11.27418 l 0,-10.30928 -7.21142,0 0,49.71815 7.41456,0 0,-29.96293 c 3.85963,-7.77005 8.27789,-11.73125 12.8481,-12.59458 1.47072,-0.2844 2.89675,-0.2844 4.26631,-0.40628 m -39.40927,43.01254 0,-49.71814 -7.41415,0 0,38.44396 c -3.55492,2.68955 -8.53222,6.09415 -13.15322,6.09415 -6.14493,0 -7.31298,-3.60774 -7.31298,-8.98888 l 0,-35.54923 -7.41456,0 0,34.48276 c 0,9.85221 2.23453,16.09872 13.25479,16.09872 5.43355,0 10.86791,-3.55492 14.93068,-6.75435 l 0.0812,5.89101 7.00828,0 m -46.82292,-24.78289 c 0,-13.40714 -3.45336,-26.20487 -20.00914,-26.20487 -15.5401,0 -20.16191,13.00086 -20.16191,26.40801 0,13.55949 3.75807,25.79858 19.70444,25.79858 16.25148,0 20.46661,-12.39144 20.46661,-26.00172 z m -7.66889,0.0813 c 0,8.5826 -1.06851,19.75521 -12.59458,19.75521 -11.47692,0 -12.23869,-11.17261 -12.23869,-19.75521 0,-8.68417 1.26758,-20.1615 12.39145,-20.1615 11.83281,0 12.44182,11.47733 12.44182,20.1615 m -44.58849,8.6862 0,-48.29618 -7.82083,0 0,46.06165 c 0,8.78574 -1.21883,13.25479 -8.22752,13.25479 -4.57021,0 -9.95378,-3.40054 -9.95378,-3.40054 l -2.84394,6.34808 c 0,0 4.87532,3.50211 13.05205,3.50211 11.37535,0 15.79402,-5.02768 15.79402,-17.46991"
      id="path1848"
      style="fill:#ffffff;fill-opacity:1;fill-rule:nonzero;stroke:none;"
  />
  <path
      d="m 546.08745,310.26845 9.39516,0 0,-232.68986 -9.39516,0 0,232.68986 z"
      id="path1850"
      style="fill:#da1e48;fill-opacity:1;fill-rule:nonzero;stroke:none;"
  />
</svg>
