<?xml version="1.0" encoding="utf-8"?>
<!-- Generator: Adobe Illustrator 20.0.0, SVG Export Plug-In . SVG Version: 6.00 Build 0)  -->
<svg version="1.1" id="Layer_1" xmlns="http://www.w3.org/2000/svg" xmlns:xlink="http://www.w3.org/1999/xlink" x="0px" y="0px"
	 viewBox="0 0 356.7 95.7" style="enable-background:new 0 0 356.7 95.7;" xml:space="preserve">
<style type="text/css">
	.st0{fill:#000000;}
</style>
<g>
	<g>
		<g>
			<path class="st0" d="M116.5,40.6l0-20l4.6,0l0,20L116.5,40.6z"/>
			<path class="st0" d="M129.6,29.2l0,11.4l-4.6,0l0-20l3.6,0l9.3,11.8l0-11.7l4.6,0l0,20l-3.7,0L129.6,29.2z"/>
			<path class="st0" d="M146.3,40.7l0-20l7.5,0c1.7,0,3.1,0.3,4.3,0.8s2.3,1.2,3.1,2.1c0.8,0.9,1.5,2,1.9,3.2c0.4,1.2,0.6,2.5,0.6,3.9
				c0,1.5-0.2,2.9-0.7,4.1c-0.5,1.2-1.1,2.3-2,3.2c-0.9,0.9-1.9,1.5-3.2,2s-2.6,0.7-4.1,0.7L146.3,40.7z M159,30.7
				c0-0.9-0.1-1.7-0.3-2.4c-0.2-0.7-0.6-1.3-1-1.9c-0.4-0.5-1-0.9-1.7-1.2c-0.7-0.3-1.4-0.4-2.2-0.4l-2.8,0l0,11.9l2.8,0
				c0.8,0,1.6-0.1,2.3-0.4c0.7-0.3,1.2-0.7,1.7-1.3c0.4-0.5,0.8-1.2,1-1.9C158.9,32.3,159,31.5,159,30.7z"/>
			<path class="st0" d="M180.5,36.7l0,4.1l-14.1,0l0-20l13.8,0l0,4.1l-9.2,0l0,3.9l7.9,0l0,3.7l-7.9,0l0,4.3L180.5,36.7z"/>
			<path class="st0" d="M183.3,40.8l0-20l8.5,0c1,0,1.8,0.2,2.6,0.6c0.8,0.4,1.5,0.9,2.1,1.6c0.6,0.6,1,1.4,1.3,2.2c0.3,0.8,0.5,1.6,0.5,2.5
				c0,0.9-0.2,1.7-0.5,2.5c-0.3,0.8-0.7,1.5-1.3,2.2c-0.6,0.6-1.2,1.1-2,1.5c-0.8,0.4-1.7,0.6-2.6,0.6l-4.1,0l0,6.5L183.3,40.8z
				 M188,30.3l3.8,0c0.5,0,1-0.2,1.4-0.7c0.4-0.5,0.6-1.2,0.6-2.1c0-0.5-0.1-0.9-0.2-1.2c-0.1-0.3-0.3-0.6-0.5-0.8
				c-0.2-0.2-0.4-0.4-0.7-0.5c-0.3-0.1-0.5-0.2-0.8-0.2l-3.6,0L188,30.3z"/>
			<path class="st0" d="M214.9,36.8l0,4.1l-14.1,0l0-20l13.8,0l0,4.1l-9.2,0l0,3.9l7.9,0l0,3.7l-7.9,0l0,4.3L214.9,36.8z"/>
			<path class="st0" d="M222.4,29.4l0,11.4l-4.6,0l0-20l3.6,0l9.3,11.8l0-11.7l4.6,0l0,20l-3.7,0L222.4,29.4z"/>
			<path class="st0" d="M239.1,40.9l0-20l7.5,0c1.7,0,3.1,0.3,4.3,0.8c1.2,0.5,2.3,1.2,3.1,2.1c0.8,0.9,1.5,2,1.9,3.2c0.4,1.2,0.6,2.5,0.6,3.9
				c0,1.5-0.2,2.9-0.7,4.1c-0.5,1.2-1.1,2.3-2,3.2c-0.9,0.9-1.9,1.5-3.2,2c-1.2,0.5-2.6,0.7-4.1,0.7L239.1,40.9z M251.9,30.9
				c0-0.9-0.1-1.7-0.3-2.4c-0.2-0.7-0.6-1.3-1-1.9c-0.4-0.5-1-0.9-1.7-1.2c-0.7-0.3-1.4-0.4-2.2-0.4l-2.8,0l0,11.9l2.8,0
				c0.8,0,1.6-0.1,2.3-0.4c0.7-0.3,1.2-0.7,1.7-1.3c0.4-0.5,0.8-1.2,1-1.9C251.8,32.5,251.9,31.7,251.9,30.9z"/>
			<path class="st0" d="M273.4,36.9l0,4.1l-14.1,0l0-20l13.8,0l0,4.1l-9.2,0l0,3.9l7.9,0l0,3.7l-7.9,0l0,4.3L273.4,36.9z"/>
			<path class="st0" d="M280.8,29.5l0,11.4l-4.6,0l0-20l3.6,0l9.3,11.8l0-11.7l4.6,0l0,20l-3.7,0L280.8,29.5z"/>
			<path class="st0" d="M312.8,25.1l-6.1,0l0,15.9l-4.6,0l0-15.9l-6.1,0l0-4.1l16.8,0L312.8,25.1z"/>
			<path class="st0" d="M110.1,69.5c0.2,0.2,0.6,0.3,1.2,0.6c0.6,0.2,1.3,0.3,2.1,0.3c0.7,0,1.2-0.1,1.7-0.3s0.7-0.6,1-1.1
				c0.2-0.5,0.4-1.1,0.4-1.9c0.1-0.8,0.1-1.7,0.1-2.7l0-10.2l4.6,0l0,10.2c0,1.5-0.1,2.9-0.2,4.2c-0.2,1.2-0.5,2.3-1,3.2
				c-0.5,0.9-1.3,1.6-2.4,2.1c-1,0.5-2.4,0.7-4.1,0.7c-1.7,0-3.1-0.4-4.3-1.2L110.1,69.5z"/>
			<path class="st0" d="M133.6,74.4c-1.5,0-2.8-0.3-4.1-0.9c-1.2-0.6-2.3-1.4-3.1-2.3c-0.9-0.9-1.5-2-2-3.3c-0.5-1.2-0.7-2.5-0.7-3.8
				c0-1.3,0.3-2.6,0.8-3.8c0.5-1.2,1.2-2.3,2.1-3.2c0.9-0.9,2-1.7,3.2-2.2c1.2-0.6,2.6-0.8,4-0.8c1.5,0,2.8,0.3,4.1,0.9
				c1.2,0.6,2.3,1.4,3.1,2.3c0.9,1,1.5,2,2,3.3c0.5,1.2,0.7,2.5,0.7,3.7c0,1.3-0.3,2.6-0.8,3.8c-0.5,1.2-1.2,2.3-2.1,3.2
				c-0.9,0.9-1.9,1.7-3.2,2.2C136.3,74.1,135,74.4,133.6,74.4z M128.4,64.2c0,0.8,0.1,1.5,0.3,2.2c0.2,0.7,0.6,1.4,1,1.9
				c0.4,0.6,1,1,1.6,1.4c0.7,0.3,1.4,0.5,2.3,0.5c0.9,0,1.7-0.2,2.3-0.5c0.7-0.4,1.2-0.8,1.6-1.4c0.4-0.6,0.8-1.2,1-1.9
				s0.3-1.5,0.3-2.2c0-0.8-0.1-1.5-0.3-2.2c-0.2-0.7-0.6-1.4-1-1.9c-0.4-0.6-1-1-1.6-1.3s-1.4-0.5-2.2-0.5c-0.9,0-1.6,0.2-2.3,0.5
				s-1.2,0.8-1.6,1.4c-0.4,0.6-0.8,1.2-1,1.9C128.5,62.7,128.4,63.5,128.4,64.2z"/>
			<path class="st0" d="M154.8,70.3c0.8,0,1.5-0.2,2-0.5c0.5-0.3,1-0.8,1.3-1.3c0.3-0.5,0.6-1.2,0.7-1.9c0.1-0.7,0.2-1.4,0.2-2.2l0-10.2l4.6,0
				l0,10.2c0,1.4-0.2,2.7-0.5,3.9c-0.3,1.2-0.9,2.3-1.6,3.2s-1.6,1.6-2.8,2.1c-1.1,0.5-2.4,0.8-4,0.8c-1.6,0-3-0.3-4.1-0.8
				c-1.1-0.5-2-1.3-2.7-2.2c-0.7-0.9-1.2-2-1.5-3.2c-0.3-1.2-0.5-2.5-0.5-3.8l0-10.2l4.6,0l0,10.2c0,0.8,0.1,1.5,0.2,2.2
				c0.1,0.7,0.4,1.3,0.7,1.9c0.3,0.5,0.8,1,1.3,1.3C153.4,70.1,154,70.3,154.8,70.3z"/>
			<path class="st0" d="M167.3,74.3l0-20l9,0c0.9,0,1.8,0.2,2.6,0.6c0.8,0.4,1.5,0.9,2.1,1.6c0.6,0.6,1,1.4,1.4,2.2c0.3,0.8,0.5,1.6,0.5,2.5
				c0,0.6-0.1,1.2-0.2,1.8s-0.4,1.1-0.7,1.6c-0.3,0.5-0.6,1-1,1.4c-0.4,0.4-0.9,0.7-1.4,1l4.4,7.4l-5.2,0l-3.8-6.5l-3,0l0,6.5
				L167.3,74.3z M171.9,63.8l4.2,0c0.5,0,1-0.3,1.4-0.8c0.4-0.5,0.6-1.2,0.6-2c0-0.8-0.2-1.5-0.7-2c-0.5-0.5-0.9-0.7-1.5-0.7l-4.1,0
				L171.9,63.8z"/>
			<path class="st0" d="M190.8,62.9l0,11.4l-4.6,0l0-20l3.6,0l9.3,11.8l0-11.7l4.6,0l0,20l-3.7,0L190.8,62.9z"/>
			<path class="st0" d="M213,54.3l4.2,0l7.3,20l-4.7,0l-1.5-4.5l-6.2,0l-1.5,4.5l-4.7,0L213,54.3z M217.4,66.7l-2.3-7.1l-2.4,7.1L217.4,66.7z"/>
			<path class="st0" d="M226.4,74.4l0-20l4.6,0l0,15.9l9.7,0l0,4.1L226.4,74.4z"/>
			<path class="st0" d="M248.7,74.4l0-20l9,0c0.9,0,1.8,0.2,2.6,0.6c0.8,0.4,1.5,0.9,2.1,1.6c0.6,0.6,1,1.4,1.4,2.2c0.3,0.8,0.5,1.6,0.5,2.5
				c0,0.6-0.1,1.2-0.2,1.8s-0.4,1.1-0.7,1.6c-0.3,0.5-0.6,1-1,1.4c-0.4,0.4-0.9,0.7-1.4,1l4.4,7.4l-5.2,0l-3.8-6.5l-3,0l0,6.5
				L248.7,74.4z M253.3,63.9l4.2,0c0.5,0,1-0.3,1.4-0.8c0.4-0.5,0.6-1.2,0.6-2c0-0.8-0.2-1.5-0.7-2c-0.5-0.5-0.9-0.7-1.5-0.7l-4.1,0
				L253.3,63.9z"/>
			<path class="st0" d="M281.6,70.4l0,4.1l-14.1,0l0-20l13.8,0l0,4.1l-9.2,0l0,3.9l7.9,0l0,3.7l-7.9,0l0,4.3L281.6,70.4z"/>
			<path class="st0" d="M287.3,54.5l4.7,14.2l4.7-14.2l4.9,0l-7.6,20l-3.9,0l-7.6-20L287.3,54.5z"/>
			<path class="st0" d="M303.4,74.5l0-20l4.6,0l0,20L303.4,74.5z"/>
			<path class="st0" d="M325.9,70.5l0,4.1l-14.1,0l0-20l13.8,0l0,4.1l-9.2,0l0,3.9l7.9,0l0,3.7l-7.9,0l0,4.3L325.9,70.5z"/>
			<path class="st0" d="M335.4,54.6l4.3,0l2,6.4l2-6.4l4.3,0l-3.4,9.3l2,5.4l5-14.7l5,0l-8,20l-3.9,0l-3.2-7.8l-3.2,7.8l-3.9,0l-7.9-20l5,0
				l5,14.7l2-5.4L335.4,54.6z"/>
		</g>
	</g>
	<g>
		<path class="st0" d="M86.6,0H10.2C4.9,0,0.5,4.4,0.5,9.7V86c0,5.3,4.4,9.7,9.7,9.7h76.3c5.3,0,9.7-4.4,9.7-9.7V9.7
			C96.3,4.4,91.9,0,86.6,0z M91.5,85.9c0,2.8-2.2,5-5,5h-76c-2.8,0-5-2.2-5-5v-76c0-2.8,2.2-5,5-5h76c2.8,0,5,2.2,5,5V85.9z"/>
		<path class="st0" d="M33.9,35.2h-3.8c-0.3,0-0.5,0.2-0.5,0.5v19.8c0,0.3,0.2,0.5,0.5,0.5h3.8c0.3,0,0.5-0.2,0.5-0.5V35.7
			C34.4,35.4,34.1,35.2,33.9,35.2z"/>
		<path class="st0" d="M62.6,48.7c-0.1-0.2-0.1-0.5,0.1-0.7c0.4-0.2,0.7-0.5,1-0.8c0.4-0.4,0.8-0.9,1.1-1.4c0.3-0.5,0.5-1.1,0.7-1.7
			c0.2-0.6,0.2-1.2,0.2-1.9c0-0.9-0.2-1.7-0.5-2.5c-0.3-0.8-0.8-1.6-1.4-2.3c-0.6-0.7-1.3-1.2-2.2-1.6c-0.8-0.4-1.7-0.6-2.7-0.6H50
			c-0.3,0-0.5,0.2-0.5,0.5v19.8c0,0.3,0.2,0.5,0.5,0.5h3.8c0.3,0,0.5-0.2,0.5-0.5v-5.7c0-0.3,0.2-0.5,0.5-0.5h2.3
			c0.2,0,0.3,0.1,0.4,0.2l3.7,6.2c0.1,0.2,0.3,0.2,0.4,0.2H66c0.4,0,0.6-0.4,0.4-0.8L62.6,48.7z M60.2,44.3
			c-0.4,0.5-0.9,0.8-1.5,0.8h-3.9c-0.3,0-0.5-0.2-0.5-0.5v-4.7c0-0.3,0.2-0.5,0.5-0.5h3.7c0.5,0,1.1,0.3,1.5,0.8
			c0.5,0.5,0.7,1.2,0.7,2C60.8,43.1,60.6,43.7,60.2,44.3z"/>
		<path class="st0" d="M73.7,51.7H71c-0.4,0-0.8,0.4-0.8,0.8v2.7c0,0.4,0.4,0.8,0.8,0.8h2.7c0.4,0,0.8-0.4,0.8-0.8v-2.7
			C74.4,52.1,74.1,51.7,73.7,51.7z"/>
		<path class="st0" d="M43.9,35.2h-3.8c-0.3,0-0.5,0.2-0.5,0.5v18c0,1.1,0,2-0.1,2.8c0,0.4-0.1,0.7-0.2,1c-0.1,0.5-0.4,1-0.8,1.4
			c-0.4,0.4-0.8,0.7-1.3,0.9c-0.3,0.1-0.6,0.2-0.9,0.2c-0.2,0-0.3,0-0.5,0c-0.2,0-0.3,0-0.5,0c-0.4,0.1-0.7,0.4-0.7,0.8v2.6
			c0,0.4,0.3,0.8,0.7,0.8c0.3,0,0.6,0,0.9,0c1.8,0,3.2-0.3,4.3-0.8c1.1-0.5,1.9-1.2,2.4-2.1c0.6-0.9,0.9-2,1.1-3.3
			c0.2-1.3,0.2-2.7,0.2-4.3V36.4v-0.8C44.4,35.4,44.2,35.2,43.9,35.2z"/>
	</g>
</g>
</svg>
