<?xml version="1.0" encoding="UTF-8" standalone="no"?>
<!-- Created with Inkscape (http://www.inkscape.org/) -->

<svg
   xmlns:dc="http://purl.org/dc/elements/1.1/"
   xmlns:cc="http://creativecommons.org/ns#"
   xmlns:rdf="http://www.w3.org/1999/02/22-rdf-syntax-ns#"
   xmlns:svg="http://www.w3.org/2000/svg"
   xmlns="http://www.w3.org/2000/svg"
   xmlns:sodipodi="http://sodipodi.sourceforge.net/DTD/sodipodi-0.dtd"
   xmlns:inkscape="http://www.inkscape.org/namespaces/inkscape"
   version="1.0"
   width="888.01172"
   height="915.24622"
   id="svg2848"
   sodipodi:version="0.32"
   inkscape:version="0.91 r13725"
   sodipodi:docname="WikiJournal_Preprint_logo (flat black).svg">
  <metadata
     id="metadata1970">
    <rdf:RDF>
      <cc:Work
         rdf:about="">
        <dc:format>image/svg+xml</dc:format>
        <dc:type
           rdf:resource="http://purl.org/dc/dcmitype/StillImage" />
        <dc:title></dc:title>
      </cc:Work>
    </rdf:RDF>
  </metadata>
  <sodipodi:namedview
     inkscape:window-height="1057"
     inkscape:window-width="1858"
     inkscape:pageshadow="2"
     inkscape:pageopacity="0.0"
     guidetolerance="10.0"
     gridtolerance="10.0"
     objecttolerance="10.0"
     borderopacity="1.0"
     bordercolor="#666666"
     pagecolor="#ffffff"
     id="base"
     height="900px"
     width="900px"
     inkscape:zoom="0.25722223"
     inkscape:cx="105.33267"
     inkscape:cy="1080.3787"
     inkscape:window-x="54"
     inkscape:window-y="-8"
     inkscape:current-layer="svg2848"
     showgrid="false"
     inkscape:window-maximized="1"
     fit-margin-top="0"
     fit-margin-left="0"
     fit-margin-right="0"
     fit-margin-bottom="0" />
  <defs
     id="defs2850" />
  <path
     style="fill:#000000;fill-opacity:1"
     d="M 442.06836 149.17188 C 428.73706 149.25733 415.56814 150.46091 402.55664 152.70508 C 400.57384 153.04707 398.59464 153.41036 396.61914 153.80078 C 305.71823 168.10358 228.24046 224.17496 183.37109 302.31055 C 214.85798 309.51906 245.2587 315.58816 274.58789 320.54688 C 271.69259 326.72647 268.93845 333.00632 266.34375 339.37891 C 235.10919 334.13095 204.06449 328.03267 173.12695 321.7168 C 163.07055 342.50647 155.22505 364.62154 149.92383 387.74414 C 148.49843 393.23032 147.25576 398.76044 146.19141 404.32617 C 179.88993 411.42895 212.44514 417.44058 243.87891 422.39258 C 243.01961 428.95453 242.38607 435.56401 241.98047 442.21289 C 209.07752 437.17779 176.35232 431.34331 143.10352 425.18945 C 142.23016 433.51913 141.7745 441.91177 141.78125 450.35156 C 141.78125 450.35876 141.78115 450.36605 141.78125 450.37305 C 141.79375 452.83947 141.85831 455.28478 141.94531 457.7207 C 141.94431 458.02092 141.93359 458.31871 141.93359 458.61914 C 141.98749 553.10313 184.21973 641.78914 255.58984 699.92578 C 307.88844 746.22455 284.98414 819.92063 304.93164 879.91797 C 313.48874 882.65835 322.15673 885.15359 330.92773 887.38672 C 336.35294 888.76806 341.82246 890.03866 347.32422 891.2207 C 347.04316 852.46888 351.93637 776.5353 341.84961 738.65039 C 350.27751 741.70845 358.8359 744.394 367.5 746.69922 C 371.1924 766.02181 372.68312 787.9614 373.04102 809.49023 C 373.08602 812.17856 373.113 814.86021 373.125 817.5293 C 373.137 820.20195 373.13523 822.86246 373.11523 825.50391 C 372.95063 851.89075 371.46186 876.42069 370.78906 893.13672 C 370.78886 893.14172 370.78926 893.1543 370.78906 893.1543 C 370.75457 894.0114 370.72922 894.78649 370.69922 895.60156 C 375.60654 896.38557 380.53736 897.09667 385.49609 897.7207 C 394.77809 898.8889 404.147 899.77419 413.5957 900.36719 C 420.41017 900.79487 427.26678 901.06486 434.16016 901.18555 C 434.00772 853.97981 433.24259 805.70331 432.28516 756.60938 C 436.77766 756.93409 441.2768 757.15942 445.7793 757.28516 C 451.0384 757.23471 456.29542 757.04845 461.54492 756.72656 C 460.60114 805.8946 459.8286 854.16182 459.62695 901.05078 C 464.5771 900.90145 469.50738 900.67526 474.41602 900.36719 C 483.86472 899.77419 493.23363 898.8889 502.51562 897.7207 C 509.33686 896.86229 516.10911 895.84788 522.83203 894.6875 C 522.26044 879.56197 520.9316 857.64323 520.55078 833.29883 C 520.51078 830.72263 520.48084 828.12251 520.46484 825.50391 C 520.46464 825.48191 520.46494 825.4595 520.46484 825.4375 C 520.43984 821.29817 520.45486 817.10578 520.50586 812.89844 C 520.51886 811.76171 520.52397 810.62979 520.54297 809.49023 C 520.58797 806.80068 520.64847 804.10507 520.73047 801.4082 C 521.30607 782.42806 522.86075 763.42481 526.12305 746.45508 C 534.83256 744.03327 543.43008 741.22539 551.89062 738.04102 C 551.89117 738.03907 551.89205 738.0371 551.89258 738.03516 L 551.89258 738.04102 L 551.89062 738.04102 C 541.70013 775.32255 546.44106 850.66034 546.26953 889.98438 C 549.88948 889.15805 553.49779 888.29982 557.08398 887.38672 C 565.85498 885.15359 574.52298 882.65835 583.08008 879.91797 C 603.02758 819.92063 580.12327 746.22455 632.42188 699.92578 C 654.96001 681.56667 674.58839 660.15902 690.9043 636.48633 C 657.63459 644.34502 624.57546 652.63117 590.09961 659.55469 C 595.01551 650.65859 600.13415 641.50073 605.62695 631.51953 C 641.91605 624.50264 678.57502 616.24331 707.32422 609.80078 C 707.33597 609.80458 707.3457 609.8087 707.35742 609.8125 C 720.28757 586.2713 730.1983 561.00327 736.75391 534.63867 C 703.94212 541.35619 670.30066 548.63444 638.67383 554.36914 C 641.09493 546.42881 643.24903 538.3763 645.11523 530.24609 C 676.24089 524.53842 708.47372 517.73628 741.88086 509.77734 C 744.63822 493.01971 746.06824 475.91735 746.07812 458.61914 C 746.07812 458.31871 746.06641 458.02092 746.06641 457.7207 C 746.15341 455.28478 746.21847 452.83947 746.23047 450.37305 C 746.23067 450.36605 746.23047 450.35856 746.23047 450.35156 C 746.24747 429.09276 743.38289 408.1239 738.08789 387.74414 C 710.29919 266.53951 612.81918 172.90664 491.39258 153.80078 C 489.41708 153.41036 487.43788 153.04707 485.45508 152.70508 C 472.44358 150.46091 459.27476 149.25727 445.94336 149.17188 C 445.29846 149.16787 444.65146 149.17673 444.00586 149.17773 C 443.36026 149.17673 442.71326 149.16788 442.06836 149.17188 z M 555.25 247.11133 C 602.19264 247.11133 649.13477 294.0554 649.13477 340.99805 L 367.47852 622.6543 L 250.12305 646.125 L 273.59375 528.76758 L 555.25 247.11133 z M 566.98633 277.625 C 566.98633 277.625 355.74381 491.21323 301.75977 545.19727 C 308.80117 549.89153 318.18907 556.93321 325.23047 563.97461 L 590.45703 294.05469 C 583.41563 284.66617 576.37486 279.97213 566.98633 277.625 z "
     id="path4338" />
  <path
     style="opacity:1;fill:#000000;fill-opacity:1;stroke:none;stroke-width:10;stroke-linecap:round;stroke-linejoin:round;stroke-miterlimit:4;stroke-dasharray:none;stroke-opacity:1"
     d="M 471.2217,0.94519687 464.4424,100.72059 c -7.4189,-0.47425 -12.8982,-0.72067 -20.4356,-0.72461 -7.538,0.004 -13.018,0.25032 -20.4375,0.72461 L 416.79,0.94519687 c 19.4627,-1.27795 35.081,-1.24245 54.4317,0 z M 607.7783,30.6952 c 16.1708,6.31996 31.8845,13.5559 47.084,21.63086 l -0.082,0.14844 c 0.4006,0.21322 0.8051,0.42035 1.205,0.63476 l -48.2597,87.63867 c -11.3773,-6.05075 -23.1237,-11.49785 -35.2032,-16.28516 l 0.043,-0.10937 c -0.4993,-0.1973 -0.9957,-0.40063 -1.4961,-0.5957 z m -327.5449,0 36.709,93.0625 c -0.5004,0.19507 -0.9969,0.3984 -1.4961,0.5957 l 0.043,0.10937 c -12.0795,4.78731 -23.8258,10.23441 -35.2031,16.28516 L 232.0264,53.10926 c 0.4,-0.21441 0.8044,-0.42154 1.2051,-0.63476 l -0.082,-0.14844 c 15.1995,-8.07496 30.9132,-15.3109 47.084,-21.63086 z m 488.1875,107.36914 c 11.9923,12.46256 23.2703,25.61566 33.7754,39.39062 l -0.2325,0.17188 c 0.077,0.1008 0.1557,0.1999 0.2325,0.30078 l -80.5606,59.34179 c -7.8806,-10.27474 -16.3201,-20.09761 -25.2676,-29.42968 l 0.1856,-0.17774 c -0.1579,-0.16444 -0.3125,-0.33196 -0.4707,-0.49609 z m -648.83011,0 72.3379,69.10156 c -0.1582,0.16413 -0.3128,0.33165 -0.4707,0.49609 l 0.1855,0.17774 c -8.9475,9.33207 -17.3869,19.15494 -25.2675,29.42968 l -80.5606,-59.34179 c 0.077,-0.10088 0.1556,-0.19998 0.2324,-0.30078 l -0.2324,-0.17188 c 10.5051,-13.77496 21.7831,-26.92806 33.7754,-39.39062 z"
     id="path4340"
     inkscape:connector-curvature="0"
     sodipodi:nodetypes="ccccccccccccccccccccccccccccccccccccccccccc" />
  <path
     inkscape:connector-curvature="0"
     style="opacity:1;fill:#000000;fill-opacity:1;stroke:none;stroke-width:10;stroke-linecap:round;stroke-linejoin:round;stroke-miterlimit:4;stroke-dasharray:none;stroke-opacity:1"
     d="M 10.9883,328.50057 C 6.4349,344.56835 2.7579,361.00233 0,377.74471 l 98.94339,14.65039 c 2.1178,-12.49434 4.8907,-24.76684 8.2968,-36.77539 L 10.9883,328.50057 Z m 866.0351,0 -96.252,27.12109 c 3.406,12.00798 6.1792,24.27973 8.2969,36.77344 l 98.9434,-14.65235 c -2.7578,-16.74172 -6.435,-33.17501 -10.9883,-49.24218 z M 101.00979,521.08846 2.9747,540.8619 c 3.4849,17.21008 7.9518,34.06369 13.3417,50.50195 l 94.73829,-32.0957 c -4.0409,-12.43641 -7.4043,-25.17665 -10.0449,-38.17969 z m 685.99211,0 c -2.6407,13.00365 -6.0036,25.74467 -10.0448,38.18164 l 94.7383,32.09375 c 5.3899,-16.43826 9.8567,-33.29187 13.3417,-50.50195 l -98.0352,-19.77344 z m -624.82611,137.50781 -81.5761,57.90039 c 10.0226,13.70014 20.7951,26.81691 32.2675,39.28125 l 73.543,-67.8125 c -8.5931,-9.33636 -16.6858,-19.13986 -24.2344,-29.36914 z m 563.65821,0 c -7.5483,10.22878 -15.6397,20.03124 -24.2324,29.36719 l 73.543,67.81445 c 11.4721,-12.464 22.243,-25.58152 32.2655,-39.28125 L 725.834,658.59627 Z"
     id="path4346" />
  <path
     inkscape:connector-curvature="0"
     id="path4176"
     d="m -763.12826,149.17176 c 13.3314,0.0854 26.5003,1.28903 39.5118,3.5332 1.9828,0.34199 3.962,0.70528 5.9375,1.0957 121.4266,19.10586 218.9066,112.73874 246.6953,233.94337 5.295,20.37976 8.1595,41.34862 8.1425,62.60742 0,0.007 2e-4,0.0145 0,0.0215 -0.012,2.46642 -0.077,4.91174 -0.164,7.34766 0,0.30022 0.012,0.59801 0.012,0.89844 -0.054,94.48399 -42.2861,183.17 -113.6562,241.30664 -52.2986,46.29877 -29.3943,119.99485 -49.3418,179.99219 -8.5571,2.74038 -17.2251,5.23559 -25.9961,7.46872 -8.8954,2.2649 -17.8965,4.2648 -26.9942,5.9903 -9.0976,1.7254 -18.2921,3.1756 -27.5742,4.3437 -9.282,1.1682 -18.6509,2.0535 -28.0996,2.6465 -9.4486,0.593 -18.9768,0.8945 -28.5742,0.8945 -0.2394,0 -0.4775,0 -0.7168,-0.01 -0.2386,10e-4 -0.4762,0.01 -0.7149,0.01 -0.135,0 -0.2692,0 -0.4043,0 -0.135,10e-5 -0.2692,0 -0.4043,0 -0.2387,0 -0.4762,0 -0.7148,-0.01 -0.2393,4e-4 -0.4774,0.01 -0.7168,0.01 -9.5974,0 -19.1256,-0.3015 -28.5742,-0.8945 -9.4487,-0.593 -18.8176,-1.4783 -28.0996,-2.6465 -9.2821,-1.1681 -18.4766,-2.6183 -27.5742,-4.3437 -9.0977,-1.7255 -18.0988,-3.7254 -26.9942,-5.9903 -8.771,-2.23313 -17.439,-4.72834 -25.9961,-7.46872 -19.9475,-59.99734 2.9568,-133.69342 -49.3418,-179.99219 -71.37014,-58.13664 -113.60234,-146.82265 -113.65624,-241.30664 0,-0.30043 0.011,-0.59822 0.012,-0.89844 -0.087,-2.43592 -0.1516,-4.88124 -0.1641,-7.34766 -10e-5,-0.007 0,-0.0143 0,-0.0215 -0.017,-21.2588 2.8476,-42.22766 8.1426,-62.60742 27.7881,-121.20463 125.26814,-214.83751 246.69474,-233.94337 1.9755,-0.39042 3.9547,-0.75371 5.9375,-1.0957 13.0115,-2.24417 26.1804,-3.44775 39.5117,-3.5332 0.6449,-0.004 1.2919,0.005 1.9375,0.006 0.6456,-0.001 1.2926,-0.01 1.9375,-0.006 z"
     style="fill:#000000;fill-opacity:1" />
  <path
     sodipodi:nodetypes="ccccccccccccccccccccccccccccccccccccccccccc"
     inkscape:connector-curvature="0"
     id="path4178"
     d="m -737.84956,0.94519687 -6.7793,99.77539313 c -7.4189,-0.47425 -12.8982,-0.72067 -20.4356,-0.72461 -7.538,0.004 -13.018,0.25032 -20.4375,0.72461 l -6.7793,-99.77539313 c 19.4627,-1.27795 35.081,-1.24245 54.4317,0 z M -601.29296,30.6952 c 16.1708,6.31996 31.8845,13.5559 47.084,21.63086 l -0.082,0.14844 c 0.4006,0.21322 0.8051,0.42035 1.205,0.63476 l -48.2597,87.63867 c -11.3773,-6.05075 -23.1237,-11.49785 -35.2032,-16.28516 l 0.043,-0.10937 c -0.4993,-0.1973 -0.9957,-0.40063 -1.4961,-0.5957 z m -327.5449,0 36.709,93.0625 c -0.5004,0.19507 -0.9969,0.3984 -1.4961,0.5957 l 0.043,0.10937 c -12.0795,4.78731 -23.8258,10.23441 -35.2031,16.28516 l -48.2598,-87.63867 c 0.4,-0.21441 0.8044,-0.42154 1.2051,-0.63476 l -0.082,-0.14844 c 15.1995,-8.07496 30.9132,-15.3109 47.084,-21.63086 z m 488.1875,107.36914 c 11.9923,12.46256 23.2703,25.61566 33.7754,39.39062 l -0.2325,0.17188 c 0.077,0.1008 0.1557,0.1999 0.2325,0.30078 l -80.5606,59.34179 c -7.8806,-10.27474 -16.3201,-20.09761 -25.2676,-29.42968 l 0.1856,-0.17774 c -0.1579,-0.16444 -0.3125,-0.33196 -0.4707,-0.49609 z m -648.83014,0 72.3379,69.10156 c -0.1582,0.16413 -0.3128,0.33165 -0.4707,0.49609 l 0.1855,0.17774 c -8.9475,9.33207 -17.3869,19.15494 -25.2675,29.42968 l -80.5606,-59.34179 c 0.077,-0.10088 0.1556,-0.19998 0.2324,-0.30078 l -0.2324,-0.17188 c 10.5051,-13.77496 21.7831,-26.92806 33.7754,-39.39062 z"
     style="opacity:1;fill:#000000;fill-opacity:1;stroke:none;stroke-width:10;stroke-linecap:round;stroke-linejoin:round;stroke-miterlimit:4;stroke-dasharray:none;stroke-opacity:1" />
  <path
     style="fill:#ffffff;fill-opacity:1;stroke:none"
     d="m -657.17876,738.0409 c -8.4611,3.18464 -17.0595,5.99209 -25.7696,8.41406 -3.2623,16.96973 -4.8169,35.97299 -5.3925,54.95313 -0.082,2.69687 -0.1425,5.39248 -0.1875,8.08203 -0.019,1.13956 -0.024,2.27147 -0.037,3.4082 -0.051,4.20734 -0.066,8.39974 -0.041,12.53907 10e-5,0.022 -2e-4,0.0444 0,0.0664 0.016,2.6186 0.046,5.21872 0.086,7.79492 0.4064,25.97978 1.9252,49.51088 2.414,64.61529 10e-5,0 -2e-4,0.011 0,0.016 0.097,3.0152 0.1524,5.6927 0.1524,7.9882 l 0,0 0,0 c 0,1.1462 -0.015,2.1978 -0.047,3.1465 0,0 10e-5,0 0,0.01 -0.032,0.9485 -0.08,1.7961 -0.1484,2.5352 l 0,0 c -0.034,0.3696 -0.073,0.7124 -0.1172,1.0273 -0.01,0.049 -0.014,0.087 -0.023,0.1348 -0.1285,0.8728 -0.2956,1.5314 -0.5117,1.9355 -0.076,0.1421 -0.1581,0.2527 -0.2461,0.334 -0.087,0.081 -0.1793,0.1334 -0.2793,0.1524 7.1787,-7e-4 13.8882,9e-4 21.0528,0 0.088,0 0.1707,0 0.2597,0 0.3395,-0.1302 0.6215,-0.4393 0.8594,-0.8789 7.1315,-11.1434 -5.4975,-126.99766 7.9766,-176.27934 z m -210.043,0.60938 c 13.2078,49.60726 0.7202,164.53072 7.8145,175.66402 0.2385,0.4428 0.5183,0.7541 0.8593,0.8848 0.089,0 0.1729,0 0.2617,0 6.7706,6e-4 14.1906,-7e-4 21.0528,0 -0.1002,-0.019 -0.1933,-0.071 -0.2813,-0.1523 -0.1755,-0.1626 -0.3278,-0.4471 -0.457,-0.8496 -0.065,-0.2013 -0.1237,-0.4324 -0.1777,-0.6914 -0.1012,-0.4867 -0.1801,-1.0828 -0.2461,-1.7657 -0.078,-0.8092 -0.132,-1.7585 -0.166,-2.8281 -0.06,-1.8715 -0.061,-4.1154 -0.01,-6.7148 10e-5,0 0,-0.01 0,-0.01 0.052,-2.6675 0.1547,-5.6938 0.2891,-9.0333 2e-4,0 -2e-4,-0.013 0,-0.018 0.6728,-16.71603 2.1615,-41.24593 2.3261,-67.63277 0.02,-2.64145 0.022,-5.30196 0.01,-7.97461 -0.012,-2.66909 -0.039,-5.35073 -0.084,-8.03906 -0.3579,-21.52883 -1.8486,-43.46843 -5.541,-62.79102 -8.6641,-2.30522 -17.2225,-4.99076 -25.6504,-8.04882 z m 90.4355,17.95508 c 1.0526,53.97323 1.8807,106.97311 1.9083,158.63084 l 25.3847,0.01 c 0.089,-51.31357 0.9276,-104.38023 1.9668,-158.51952 -5.2495,0.32189 -10.5065,0.50815 -15.7656,0.5586 -4.5025,-0.12574 -9.0017,-0.35106 -13.4942,-0.67578 z"
     id="path4180"
     inkscape:connector-curvature="0"
     sodipodi:nodetypes="ccscccccccscccccccccccccccccccccsccccccccsccccccccc" />
  <path
     id="path4182"
     d="m -1198.083,328.50057 c -4.5534,16.06778 -8.2304,32.50176 -10.9883,49.24414 l 98.9434,14.65039 c 2.1178,-12.49434 4.8907,-24.76684 8.2968,-36.77539 l -96.2519,-27.11914 z m 866.03514,0 -96.252,27.12109 c 3.406,12.00798 6.1792,24.27973 8.2969,36.77344 l 98.9434,-14.65235 c -2.7578,-16.74172 -6.435,-33.17501 -10.9883,-49.24218 z m -776.01364,192.58789 -98.0351,19.77344 c 3.4849,17.21008 7.9518,34.06369 13.3417,50.50195 l 94.7383,-32.0957 c -4.0409,-12.43641 -7.4043,-25.17665 -10.0449,-38.17969 z m 685.99214,0 c -2.6407,13.00365 -6.0036,25.74467 -10.0448,38.18164 l 94.7383,32.09375 c 5.3899,-16.43826 9.8567,-33.29187 13.3417,-50.50195 l -98.0352,-19.77344 z m -624.82614,137.50781 -81.5761,57.90039 c 10.0226,13.70014 20.7951,26.81691 32.2675,39.28125 l 73.543,-67.8125 c -8.5931,-9.33636 -16.6858,-19.13986 -24.2344,-29.36914 z m 563.65824,0 c -7.5483,10.22878 -15.6397,20.03124 -24.2324,29.36719 l 73.543,67.81445 c 11.4721,-12.464 22.243,-25.58152 32.2655,-39.28125 l -81.5761,-57.90039 z"
     style="opacity:1;fill:#000000;fill-opacity:1;stroke:none;stroke-width:10;stroke-linecap:round;stroke-linejoin:round;stroke-miterlimit:4;stroke-dasharray:none;stroke-opacity:1"
     inkscape:connector-curvature="0" />
  <g
     style="fill:#ffffff"
     transform="matrix(23.471321,0,0,23.471321,-1052.834,200.16962)"
     id="g4184">
    <path
       style="fill:#ffffff"
       inkscape:connector-curvature="0"
       d="M 17,2 5,14 4,19 9,18 21,6 C 21,4 19,2 17,2 Z M 7.2,15.5 C 6.9,15.2 6.5,14.9 6.2,14.7 8.5,12.4 17.5,3.3 17.5,3.3 c 0.4,0.1 0.7,0.3 1,0.7 L 7.2,15.5 Z"
       id="path4186" />
  </g>
  <path
     style="fill:#ffffff;fill-opacity:1"
     d="m -1030.3136,301.25965 c -3.9689,6.322 -7.7194,12.76785 -11.2305,19.32227 32.7891,6.72348 65.69844,13.23246 98.81644,18.79687 2.5947,-6.37259 5.3489,-12.65243 8.2442,-18.83203 -30.7631,-5.20115 -62.69101,-11.60765 -95.83014,-19.28711 z m -40.6348,101.36133 c -1.3134,6.97611 -2.3265,14.01004 -3.0527,21.08789 36.0318,6.70544 71.3529,13.06263 106.91014,18.50391 0.4056,-6.64888 1.0392,-13.25837 1.8985,-19.82032 -33.94031,-5.34687 -69.17044,-11.91139 -105.75594,-19.77148 z m 603.85944,107.13281 c -33.4435,7.96939 -65.7099,14.77871 -96.8672,20.49219 -1.8662,8.13021 -4.0203,16.18272 -6.4414,24.12305 31.6699,-5.74251 65.35993,-13.03311 98.21413,-19.75824 1.90657,-8.52217 3.51083,-15.09563 5.09447,-24.857 z m -34.65732,100.04685 c -28.7492,6.44253 -65.40908,14.7019 -101.69818,21.71879 -5.4928,9.9812 -10.6114,19.139 -15.5273,28.0351 34.9065,-7.01 68.3599,-15.4195 102.0508,-23.3652 4.6544,-8.5603 10.70728,-17.75394 15.17468,-26.38869 z"
     id="path4188"
     inkscape:connector-curvature="0"
     sodipodi:nodetypes="cccccccccccccccccccc" />
</svg>
