<?xml version="1.0" encoding="utf-8"?>
<!-- Generator: Adobe Illustrator 19.2.1, SVG Export Plug-In . SVG Version: 6.00 Build 0)  -->
<svg version="1.1" id="Layer_1" xmlns="http://www.w3.org/2000/svg" xmlns:xlink="http://www.w3.org/1999/xlink" x="0px" y="0px"
	 viewBox="0 0 283.5 283.5" style="enable-background:new 0 0 283.5 283.5;" xml:space="preserve">
<style type="text/css">
	.st0{fill:#FFFFFF;}
	.st1{fill:#12558A;}
	.st2{fill:#2EBDE9;}
	.st3{opacity:0.2;}
	.st4{fill:url(#SVGID_1_);}
	.st5{fill:url(#SVGID_2_);}
	.st6{fill:#0B5582;}
</style>
<polygon class="st0" points="75.9,101.3 75.3,55.7 113.3,22 159.7,22 198.7,101.7 199.3,124.3 194.4,135 122.2,136.3 "/>
<g id="Logo_Icon">
	<g id="Tech_Outer_Design">
		<path id="Tech_Outer_Design_1_" class="st1" d="M172.9,20.2c-24-0.2-47.9-0.1-71.9,0.2c-15.6,0.2-27.1,11.2-27.3,26.6
			c-0.1,8.5-0.2,63.3,0,74.5c0.2,15,11.4,26,26.3,26.6c9.1,0.3,18.2-0.6,27.2,0.3c5.7,0.6,11.8,2.7,16.6,5.8
			c8.3,5.5,15.8,12.3,25.5,20c0-9.9,0-17.3,0-25.3c23.9-3,31.6-11.6,31.6-33.7c0-11.2,0-22.4,0.1-33.6c0,0.4-0.1-28.5-0.1-33.2
			C200.6,31.5,189.7,20.4,172.9,20.2z M197.9,122.6c-0.2,6.6-4.9,11-11.7,11.1c-4.8,0-9.7,0-14.5,0c-7-0.1-11.7-4.6-11.8-11.5
			c-0.1-5.2,0-10.4,0-15.6c0-4.5-1.9-6.6-6.5-6.8c-3.8-0.2-7.7-0.2-11.6,0c-4,0.2-6.2,2.5-6.3,6.5c-0.1,2.8,0,5.7-0.1,8.5
			c-0.1,5-3.9,8.7-9,8.8c-2.9,0.1-5.9,0.1-8.8,0c-4.7-0.1-8.5-3.7-8.7-8.3c-0.1-2.7-0.1-5.4-0.1-8c-0.2-6.1-2.8-8.7-8.9-8.7
			c-3.9,0-7.9,0-11.8,0c-6.8-0.1-12.2,0.6-12.2-10.2c0,0.3,0.1-13.2,0.1-15c0,0,0,0.1,0,0.1c0-0.9,0-0.8,0-0.1
			c0.8-5.7,5.2-9.5,11.4-9.6c4.5,0,9.1,0,13.6,0c5.2,0,7.8-2.2,8-7.3c0.3-6.8,0.5-13.7,0.2-20.5c-0.4-8.9,6.1-12.9,13.2-12.9
			c6,0,11.8,0,17.7,0.1c7.1,0,11.7,4.5,11.8,11.4c0,3.2,0,6.4,0,9.6c0,3.3,0,6.5,0,9.8c-0.1,6.5-4.7,11.1-11.3,11.2
			c-6.7,0.1-13.5,0-20.2,0c-6,0-9.2,3-9.3,8.9c-0.1,5.7-0.1,11.4,0.4,17.1c0.3,4.4,2.7,6.1,7.1,6.1c3.2,0,6.5,0.1,9.7-0.1
			c3.9-0.2,5.6-2.2,5.7-6c0.1-3.5,0.2-6.9,0.6-10.3c0.4-3.9,3.9-7.1,7.9-7.2c3.3-0.2,6.7-0.3,10-0.1c4,0.3,7.5,4.2,8.4,7.6
			c1.1,4-1,8.4,0.7,12.4c1.4,3.1,6.1,3.1,9,3.1c5.4,0,10.9-0.1,16.3,0c6.6,0.2,11,4.6,11.2,11.1
			C198.1,112.5,198.1,117.6,197.9,122.6z"/>
	</g>
	<g id="Inside_Tech_Cubes">
		<path class="st2" d="M112.2,52.7c0.1,5.6,2.7,8.2,8.6,8.3c6.7,0.1,13.3,0.1,20,0c5,0,8-3,8.1-7.7c0-6.5,0-13,0-19.6
			c0-4.5-2.8-7.6-7.5-7.7c-7.3-0.2-14.6-0.1-21.9,0c-4.3,0.1-7.1,3.2-7.2,7.3c-0.1,3.4,0,6.8,0,10.2
			C112.2,46.7,112.2,49.7,112.2,52.7z"/>
		<path class="st2" d="M86.1,95.3c4.5,0.1,9,0.1,13.5,0c3.8-0.1,6.7-3,6.9-6.9c0.2-2.5,0-5,0-7.5c0,0,0,0,0,0c0-2,0-4.1,0-6.1
			c0-4.6-2.7-7.8-7.1-8c-4.4-0.2-8.9-0.2-13.3,0c-4.3,0.2-7.1,3.3-7.1,7.8c0,4.4,0,8.7,0,13.1C79.2,92,82,95.1,86.1,95.3z"/>
		<path class="st2" d="M111.7,114.5c0.1,3.7,2.4,6,6.1,6.1c2.9,0.1,5.9,0.1,8.8,0c3.5-0.1,5.9-2.4,6-5.7c0.1-3.1,0.1-6.3,0-9.4
			c-0.1-3.2-2.4-5.4-5.6-5.5c-3.2-0.1-6.4-0.1-9.5,0c-3.3,0.1-5.6,2.4-5.8,5.7c-0.1,1.5,0,3,0,4.5h0
			C111.7,111.5,111.7,113,111.7,114.5z"/>
		<path class="st2" d="M136.9,91c0.1,3.7,2.4,6.1,6.2,6.1c2.9,0.1,5.9,0.1,8.9,0c3.5-0.1,5.9-2.4,6.1-5.8c0.1-3.2,0.1-6.3,0-9.5
			c-0.1-3.2-2.5-5.5-5.7-5.6c-3.2-0.1-6.4-0.1-9.6,0c-3.4,0.1-5.6,2.4-5.8,5.7c-0.1,1.5,0,3,0,4.5h0C136.9,88,136.8,89.5,136.9,91z"
			/>
		<path class="st2" d="M170,130.5c5.8,0.2,11.6,0.2,17.4,0c4.1-0.1,6.8-3,6.9-7.1c0.1-2.8,0-5.6,0-8.4c0-2.8,0.1-5.6,0-8.4
			c-0.1-3.8-3-6.8-6.9-6.9c-5.8-0.1-11.6-0.1-17.4,0c-3.7,0.1-6.7,3.1-6.8,6.7c-0.1,5.7-0.1,11.5,0,17.2
			C163.3,127.5,166.2,130.4,170,130.5z"/>
	</g>
	<g id="_x32_.0_effect" class="st3">
		<linearGradient id="SVGID_1_" gradientUnits="userSpaceOnUse" x1="73.573" y1="83.8851" x2="200.4685" y2="83.8851">
			<stop  offset="0" style="stop-color:#FFFFFF"/>
			<stop  offset="0.629" style="stop-color:#B3B3B3;stop-opacity:0.4"/>
		</linearGradient>
		<path class="st4" d="M172.9,20.2c-24-0.2-47.9-0.1-71.9,0.2c-15.6,0.2-27.1,11.2-27.3,26.6c-0.1,8.5-0.2,63.3,0,74.5
			c0.2,13.4,9.2,23.7,21.8,26.1c3.7-9.2,8.7-18.7,14.8-28.2c-0.8-1.2-1.3-2.7-1.4-4.3c-0.1-2.7-0.1-5.4-0.1-8
			c-0.2-6.1-2.8-8.7-8.9-8.7c-3.9,0-7.9,0-11.8,0c-6.8-0.1-12.2,0.6-12.2-10.2c0,0.3,0.1-13.2,0.1-15c0,0,0,0.1,0,0.1
			c0-0.9,0-0.8,0-0.1c0.8-5.7,5.2-9.5,11.4-9.6c4.5,0,9.1,0,13.6,0c5.2,0,7.8-2.2,8-7.3c0.3-6.8,0.5-13.7,0.2-20.5
			c-0.4-8.9,6.1-12.9,13.2-12.9c6,0,11.8,0,17.7,0.1c7.1,0,11.7,4.5,11.8,11.4c0,3.2,0,6.4,0,9.6c0,3.3,0,6.5,0,9.8
			c-0.1,6.5-4.7,11.1-11.3,11.2c-6.7,0.1-13.5,0-20.2,0c-6,0-9.2,3-9.3,8.9c-0.1,5.7-0.1,11.4,0.4,17.1c0.3,4.4,2.7,6.1,7.1,6.1
			c2.8,0,5.7,0.1,8.5-0.1c2.3-2.6,4.6-5.2,7-7.8c0.1-2.9,0.2-5.8,0.5-8.6c0.4-3.9,3.9-7.1,7.9-7.2c2.9-0.1,5.8-0.3,8.6-0.1
			c14.5-12.2,31.1-22.5,49.4-29.4C198.5,29.5,188.1,20.3,172.9,20.2z"/>
		<linearGradient id="SVGID_2_" gradientUnits="userSpaceOnUse" x1="200.9263" y1="81.4618" x2="200.9272" y2="81.4618">
			<stop  offset="0" style="stop-color:#FFFFFF"/>
			<stop  offset="0.629" style="stop-color:#B3B3B3;stop-opacity:0.4"/>
		</linearGradient>
		<path class="st5" d="M200.9,81.7c0,0,0-0.2,0-0.5C200.9,81.4,200.9,81.6,200.9,81.7z"/>
	</g>
</g>
<g>
	<path class="st6" d="M157.2,217.9h-2v-26.5H146v-1.9h20.4v1.9h-9.2V217.9z"/>
	<path class="st6" d="M178.4,196.4c0.9,0,1.8,0.1,2.9,0.3l-0.4,1.8c-0.9-0.2-1.8-0.3-2.7-0.3c-1.8,0-3.3,0.8-4.4,2.3
		s-1.7,3.5-1.7,5.8v11.6h-1.9v-21.1h1.6l0.2,3.8h0.1c0.9-1.6,1.8-2.6,2.8-3.3S177,196.4,178.4,196.4z"/>
	<path class="st6" d="M198.4,217.9l-0.5-3.3h-0.2c-1.1,1.4-2.1,2.3-3.3,2.9c-1.1,0.6-2.4,0.8-4,0.8c-2.1,0-3.7-0.5-4.8-1.6
		s-1.7-2.5-1.7-4.4c0-2.1,0.9-3.7,2.6-4.8c1.7-1.1,4.2-1.7,7.4-1.8l4-0.1v-1.4c0-2-0.4-3.5-1.2-4.5c-0.8-1-2.1-1.5-3.9-1.5
		c-2,0-4,0.5-6.1,1.6l-0.7-1.7c2.3-1.1,4.6-1.6,6.9-1.6c2.3,0,4,0.6,5.2,1.8c1.1,1.2,1.7,3.1,1.7,5.6v14H198.4z M190.6,216.6
		c2.2,0,4-0.6,5.3-1.9s1.9-3.1,1.9-5.4v-2.1l-3.7,0.2c-3,0.1-5.1,0.6-6.3,1.4c-1.3,0.8-1.9,2-1.9,3.7c0,1.3,0.4,2.3,1.2,3.1
		C188,216.2,189.1,216.6,190.6,216.6z"/>
	<path class="st6" d="M214.3,196.4c1.5,0,2.8,0.3,4,0.8c1.1,0.6,2.1,1.5,3,2.9h0.1c-0.1-1.6-0.1-3.2-0.1-4.8v-7.6h1.9v30.2h-1.3
		l-0.5-3.2h-0.2c-1.6,2.4-3.9,3.6-6.9,3.6c-2.9,0-5.1-0.9-6.7-2.7c-1.5-1.8-2.3-4.4-2.3-7.9c0-3.6,0.8-6.4,2.3-8.4
		C209.2,197.4,211.4,196.4,214.3,196.4z M214.3,198.2c-2.3,0-4,0.8-5.2,2.4c-1.2,1.6-1.7,4-1.7,7c0,6,2.3,9,7,9
		c2.4,0,4.1-0.7,5.2-2.1c1.1-1.4,1.7-3.7,1.7-6.8v-0.3c0-3.3-0.5-5.6-1.6-7C218.5,198.9,216.8,198.2,214.3,198.2z"/>
	<path class="st6" d="M230,191c0-1.2,0.4-1.9,1.2-1.9c0.4,0,0.7,0.2,0.9,0.5c0.2,0.3,0.3,0.8,0.3,1.4c0,0.6-0.1,1-0.3,1.4
		c-0.2,0.3-0.5,0.5-0.9,0.5C230.4,192.9,230,192.2,230,191z M232.2,217.9h-1.9v-21.1h1.9V217.9z"/>
	<path class="st6" d="M253.9,217.9v-13.7c0-2.1-0.4-3.7-1.3-4.6c-0.9-1-2.3-1.4-4.1-1.4c-2.5,0-4.4,0.6-5.5,1.9
		c-1.2,1.3-1.8,3.3-1.8,6.2v11.6h-1.9v-21.1h1.6l0.4,2.9h0.1c1.4-2.2,3.8-3.3,7.3-3.3c4.8,0,7.2,2.6,7.2,7.7v13.8H253.9z"/>
	<path class="st6" d="M279.1,196.8v1.3l-4.4,0.3c1.2,1.4,1.7,3,1.7,4.8c0,2-0.7,3.7-2,4.9s-3.2,1.9-5.4,1.9c-1,0-1.6,0-2-0.1
		c-0.8,0.4-1.3,0.9-1.7,1.4s-0.6,1.1-0.6,1.7c0,0.7,0.3,1.2,0.8,1.5c0.5,0.3,1.4,0.5,2.6,0.5h3.7c2.3,0,4,0.5,5.3,1.4
		c1.2,0.9,1.8,2.3,1.8,4.1c0,2.2-0.9,3.9-2.7,5.1c-1.8,1.2-4.4,1.8-7.7,1.8c-2.6,0-4.7-0.5-6.2-1.5s-2.2-2.4-2.2-4.3
		c0-1.4,0.4-2.7,1.3-3.6s2.1-1.6,3.7-2c-0.6-0.3-1.1-0.7-1.5-1.2c-0.4-0.5-0.6-1.1-0.6-1.7c0-1.4,0.9-2.6,2.7-3.7
		c-1.2-0.5-2.2-1.3-2.9-2.4c-0.7-1.1-1-2.3-1-3.7c0-2.1,0.7-3.8,2-5.1c1.3-1.3,3.1-1.9,5.4-1.9c1.4,0,2.5,0.1,3.2,0.4H279.1z
		 M262,221.5c0,2.9,2.2,4.3,6.5,4.3c5.5,0,8.3-1.8,8.3-5.3c0-1.3-0.4-2.2-1.3-2.8c-0.9-0.6-2.3-0.9-4.2-0.9h-3.5
		C264,216.9,262,218.5,262,221.5z M263.6,203.4c0,1.6,0.5,2.9,1.5,3.8c1,0.9,2.3,1.3,4,1.3c1.8,0,3.1-0.4,4-1.3s1.4-2.2,1.4-3.9
		c0-1.8-0.5-3.1-1.4-4c-1-0.9-2.3-1.3-4-1.3c-1.7,0-3,0.5-4,1.4C264.1,200.4,263.6,201.7,263.6,203.4z"/>
</g>
<g>
	<path class="st6" d="M20.4,217.9l-6.8-22.2h-0.2c0.2,4.5,0.4,7.5,0.4,9.1v13.2H8.4v-28.3h8.2l6.7,21.7h0.1l7.1-21.7h8.2v28.3h-5.6
		v-13.4c0-0.6,0-1.4,0-2.2s0.1-3,0.3-6.6h-0.2l-7.3,22.2H20.4z"/>
	<path class="st6" d="M65.1,207c0,3.5-0.9,6.3-2.8,8.3c-1.9,2-4.5,3-7.8,3c-2.1,0-3.9-0.5-5.5-1.4c-1.6-0.9-2.8-2.2-3.7-3.9
		c-0.9-1.7-1.3-3.7-1.3-6c0-3.5,0.9-6.3,2.8-8.3c1.8-2,4.4-2.9,7.8-2.9c2.1,0,3.9,0.5,5.5,1.4c1.6,0.9,2.8,2.2,3.7,3.9
		C64.6,202.8,65.1,204.8,65.1,207z M50.1,207c0,2.1,0.4,3.8,1.1,4.9s1.9,1.6,3.4,1.6c1.6,0,2.7-0.5,3.4-1.6s1-2.7,1-4.9
		c0-2.1-0.3-3.8-1-4.8c-0.7-1.1-1.8-1.6-3.4-1.6c-1.6,0-2.7,0.5-3.4,1.6C50.4,203.3,50.1,204.9,50.1,207z"/>
	<path class="st6" d="M82,195.8c2.6,0,4.6,1,6,3s2.2,4.7,2.2,8.2c0,3.6-0.7,6.4-2.2,8.3c-1.5,2-3.5,2.9-6.1,2.9
		c-2.5,0-4.5-0.9-6-2.8h-0.4l-1,2.4h-4.5v-30.2h5.9v7c0,0.9-0.1,2.3-0.2,4.3h0.2C77.2,196.9,79.3,195.8,82,195.8z M80.1,200.6
		c-1.5,0-2.5,0.4-3.2,1.3c-0.7,0.9-1,2.4-1,4.4v0.6c0,2.3,0.3,4,1,5c0.7,1,1.8,1.5,3.3,1.5c1.2,0,2.2-0.6,2.9-1.7
		c0.7-1.1,1.1-2.7,1.1-4.9s-0.4-3.7-1.1-4.8S81.4,200.6,80.1,200.6z"/>
	<path class="st6" d="M94.8,190.6c0-1.9,1.1-2.9,3.2-2.9c2.1,0,3.2,1,3.2,2.9c0,0.9-0.3,1.6-0.8,2.1c-0.5,0.5-1.3,0.8-2.4,0.8
		C95.9,193.5,94.8,192.6,94.8,190.6z M101,217.9h-5.9v-21.7h5.9V217.9z"/>
	<path class="st6" d="M113.1,217.9h-5.9v-30.2h5.9V217.9z"/>
	<path class="st6" d="M129.1,218.3c-3.5,0-6.2-1-8.2-2.9s-2.9-4.7-2.9-8.2c0-3.6,0.9-6.4,2.7-8.4c1.8-2,4.3-3,7.5-3
		c3.1,0,5.4,0.9,7.2,2.6c1.7,1.7,2.6,4.2,2.6,7.2v2.9h-14c0.1,1.7,0.6,3,1.5,3.9c0.9,0.9,2.2,1.4,3.9,1.4c1.3,0,2.5-0.1,3.7-0.4
		c1.2-0.3,2.4-0.7,3.6-1.3v4.6c-1,0.5-2.1,0.9-3.3,1.2C132.3,218.2,130.8,218.3,129.1,218.3z M128.3,200c-1.3,0-2.2,0.4-2.9,1.2
		s-1.1,1.9-1.2,3.4h8.3c0-1.5-0.4-2.6-1.1-3.4S129.5,200,128.3,200z"/>
</g>
<g>
	<path class="st1" d="M139.5,233.1c0,1.9-0.7,3.4-2,4.5c-1.3,1-3.2,1.6-5.6,1.6h-3.1v8.3h-1.4v-20.1h4.9
		C137.2,227.3,139.5,229.3,139.5,233.1z M128.9,237.9h2.8c2.3,0,3.9-0.4,4.9-1.1c1-0.7,1.5-2,1.5-3.6c0-1.5-0.5-2.7-1.4-3.4
		c-1-0.7-2.4-1.1-4.4-1.1h-3.3V237.9z"/>
	<path class="st1" d="M152.7,240.3h-8.2l-2.8,7.1h-1.6l8.1-20.2h0.9l7.9,20.2h-1.6L152.7,240.3z M145.1,239.1h7.2l-2.7-7.2
		c-0.2-0.6-0.5-1.4-0.8-2.4c-0.2,0.9-0.5,1.7-0.8,2.4L145.1,239.1z"/>
	<path class="st1" d="M161.3,238.7v8.7h-1.4v-20.1h4.8c2.5,0,4.3,0.5,5.5,1.4s1.8,2.3,1.8,4.2c0,1.3-0.4,2.5-1.1,3.4
		c-0.7,0.9-1.8,1.6-3.2,2l5.5,9.1h-1.7l-5.2-8.7H161.3z M161.3,237.5h3.8c1.7,0,3-0.4,3.9-1.1c0.9-0.8,1.4-1.9,1.4-3.3
		c0-1.5-0.5-2.6-1.4-3.3c-0.9-0.7-2.4-1-4.5-1h-3.3V237.5z"/>
	<path class="st1" d="M181.9,247.4h-1.4v-18.8h-6.5v-1.3h14.5v1.3h-6.5V247.4z"/>
	<path class="st1" d="M206,247.4h-1.4l-11.9-17.8h-0.1c0.1,2.1,0.2,3.7,0.2,4.8v13h-1.3v-20.1h1.4l11.9,17.8h0.1
		c-0.1-1.6-0.1-3.2-0.1-4.7v-13.1h1.4V247.4z"/>
	<path class="st1" d="M222.6,247.4h-11v-20.1h11v1.3h-9.6v7.6h9v1.3h-9v8.6h9.6V247.4z"/>
	<path class="st1" d="M228.6,238.7v8.7h-1.4v-20.1h4.8c2.5,0,4.3,0.5,5.5,1.4s1.8,2.3,1.8,4.2c0,1.3-0.4,2.5-1.1,3.4
		c-0.7,0.9-1.8,1.6-3.2,2l5.5,9.1h-1.7l-5.2-8.7H228.6z M228.6,237.5h3.8c1.7,0,3-0.4,3.9-1.1c0.9-0.8,1.4-1.9,1.4-3.3
		c0-1.5-0.5-2.6-1.4-3.3c-0.9-0.7-2.4-1-4.5-1h-3.3V237.5z"/>
	<path class="st1" d="M255,242.2c0,1.7-0.6,3-1.8,4c-1.2,1-2.9,1.5-4.9,1.5c-2.5,0-4.3-0.3-5.6-0.8v-1.4c1.4,0.6,3.3,0.9,5.5,0.9
		c1.6,0,3-0.4,3.9-1.1s1.4-1.7,1.4-3c0-0.8-0.2-1.4-0.5-1.9c-0.3-0.5-0.8-1-1.6-1.4c-0.7-0.4-1.8-0.9-3.2-1.3
		c-2.1-0.7-3.5-1.5-4.3-2.3c-0.8-0.8-1.2-1.9-1.2-3.3c0-1.5,0.6-2.7,1.8-3.7c1.2-0.9,2.7-1.4,4.5-1.4c1.9,0,3.7,0.4,5.3,1.1
		l-0.5,1.2c-1.7-0.7-3.3-1-4.8-1c-1.5,0-2.7,0.3-3.5,1c-0.9,0.7-1.3,1.6-1.3,2.8c0,0.7,0.1,1.4,0.4,1.8c0.3,0.5,0.7,0.9,1.3,1.3
		s1.7,0.8,3.2,1.4c1.6,0.5,2.7,1.1,3.5,1.6c0.8,0.5,1.4,1.1,1.7,1.7C254.8,240.5,255,241.3,255,242.2z"/>
</g>
</svg>
